<svg xmlns="http://www.w3.org/2000/svg" data-name="Слой 1" viewBox="0 0 687.85 275.7">
  <path d="M217.3 94c-1.6 1.24-29.83 17.15-29.83 52.53 0 40.92 35.93 55.39 37 55.75-.17.88-5.71 19.82-18.94 39.13-11.8 16.98-24.13 33.94-42.88 33.94s-23.57-10.89-45.22-10.89-28.59 11.25-45.74 11.25-29.12-15.72-42.88-35.02C12.88 218.02 0 182.81 0 149.39c0-53.6 34.85-82.03 69.15-82.03 18.23 0 33.42 11.97 44.86 11.97s27.88-12.68 48.61-12.68c7.86 0 36.09.72 54.68 27.35Zm-64.52-50.04c8.58-10.17 14.64-24.29 14.64-38.41 0-1.96-.17-3.94-.52-5.54-13.95.52-30.55 9.29-40.56 20.9-7.86 8.93-15.19 23.05-15.19 37.36 0 2.15.36 4.3.52 4.99.88.17 2.32.36 3.75.36 12.52 0 28.26-8.38 37.36-19.66ZM327.8 97.33c2 1.59 3.59 3.56 4.76 5.91s1.76 4.86 1.76 7.53c0 3.37-.86 6.4-2.57 9.1-1.72 2.7-4.21 4.83-7.48 6.38-3.27 1.56-7.13 2.34-11.58 2.34h-24.78V62.16h23.82c4.51 0 8.35.75 11.53 2.24 3.18 1.49 5.56 3.51 7.15 6.05 1.59 2.54 2.38 5.4 2.38 8.58 0 3.94-1.06 7.19-3.19 9.77-2.13 2.57-4.94 4.43-8.43 5.57 2.41.38 4.62 1.37 6.62 2.95Zm-31.21-6.48h14.58c4.06 0 7.21-.95 9.43-2.86 2.22-1.9 3.34-4.54 3.34-7.91s-1.11-6-3.34-7.91c-2.22-1.91-5.43-2.86-9.62-2.86h-14.39v21.54Zm25.44 27.54c2.41-2.03 3.62-4.86 3.62-8.48s-1.27-6.59-3.81-8.72c-2.54-2.13-5.94-3.19-10.2-3.19h-15.06v23.44h15.34c4.32 0 7.69-1.01 10.1-3.05ZM392.65 76.36v52.22h-8.67v-7.72c-1.65 2.67-3.95 4.75-6.91 6.24-2.95 1.49-6.21 2.24-9.77 2.24-4.07 0-7.72-.84-10.96-2.53-3.24-1.68-5.8-4.21-7.67-7.57-1.87-3.37-2.81-7.47-2.81-12.29V76.36h8.58v29.45c0 5.14 1.3 9.1 3.91 11.86 2.6 2.76 6.16 4.14 10.67 4.14s8.29-1.43 10.96-4.29c2.67-2.86 4-7.02 4-12.48V76.36h8.67ZM415.04 127.39c-3.18-1.36-5.69-3.27-7.53-5.72-1.84-2.44-2.86-5.26-3.05-8.43h8.96c.25 2.61 1.48 4.73 3.67 6.39s5.07 2.48 8.62 2.48c3.3 0 5.91-.73 7.81-2.19s2.86-3.3 2.86-5.53-1.02-3.99-3.05-5.1c-2.03-1.11-5.18-2.21-9.43-3.29-3.88-1.02-7.04-2.05-9.48-3.1-2.45-1.05-4.54-2.61-6.29-4.67s-2.62-4.78-2.62-8.15c0-2.67.79-5.11 2.38-7.34 1.59-2.22 3.84-3.99 6.77-5.29 2.92-1.3 6.26-1.95 10.01-1.95 5.78 0 10.45 1.46 14.01 4.38 3.56 2.92 5.46 6.93 5.72 12.01h-8.67c-.19-2.73-1.29-4.92-3.29-6.57-2-1.65-4.69-2.48-8.05-2.48-3.11 0-5.59.67-7.43 2-1.84 1.33-2.76 3.08-2.76 5.24 0 1.72.56 3.13 1.67 4.24 1.11 1.11 2.51 2 4.19 2.67 1.68.67 4.02 1.41 7 2.24 3.75 1.02 6.8 2.02 9.15 3 2.35.98 4.37 2.46 6.05 4.43 1.68 1.97 2.56 4.54 2.62 7.72 0 2.86-.8 5.43-2.38 7.72-1.59 2.29-3.83 4.08-6.72 5.38-2.89 1.3-6.21 1.95-9.96 1.95-4 0-7.59-.68-10.77-2.05ZM457.35 66.17c-1.14-1.14-1.71-2.54-1.71-4.19s.57-3.05 1.71-4.19c1.14-1.14 2.54-1.72 4.19-1.72s2.94.57 4.05 1.72c1.11 1.14 1.67 2.54 1.67 4.19s-.56 3.05-1.67 4.19c-1.11 1.14-2.46 1.72-4.05 1.72s-3.05-.57-4.19-1.72Zm8.39 10.2v52.22h-8.67V76.37h8.67ZM521.38 81.17c3.94 3.85 5.91 9.39 5.91 16.63v30.78h-8.58V99.04c0-5.21-1.3-9.19-3.91-11.96-2.61-2.76-6.16-4.14-10.67-4.14s-8.21 1.43-10.91 4.29c-2.7 2.86-4.05 7.02-4.05 12.48v28.87h-8.67V76.36h8.67v7.43c1.72-2.67 4.05-4.73 7-6.19s6.21-2.19 9.77-2.19c6.35 0 11.5 1.92 15.44 5.77ZM588.85 105.71h-41.74c.32 5.14 2.08 9.16 5.29 12.05 3.21 2.89 7.1 4.34 11.67 4.34 3.75 0 6.88-.87 9.39-2.62 2.51-1.75 4.27-4.08 5.29-7h9.34c-1.4 5.02-4.19 9.1-8.39 12.25-4.19 3.14-9.4 4.72-15.63 4.72-4.95 0-9.39-1.11-13.29-3.34s-6.97-5.38-9.2-9.48c-2.22-4.1-3.33-8.84-3.33-14.25s1.08-10.13 3.24-14.2c2.16-4.06 5.19-7.19 9.1-9.38 3.91-2.19 8.4-3.29 13.48-3.29s9.34 1.08 13.15 3.24c3.81 2.16 6.75 5.13 8.81 8.91 2.06 3.78 3.1 8.05 3.1 12.82 0 1.65-.1 3.4-.29 5.24Zm-10.86-15.58c-1.46-2.38-3.45-4.19-5.96-5.43-2.51-1.24-5.29-1.86-8.34-1.86-4.38 0-8.12 1.4-11.2 4.19-3.08 2.8-4.84 6.67-5.29 11.63h32.97c0-3.3-.73-6.15-2.19-8.53ZM608.28 127.39c-3.18-1.36-5.69-3.27-7.53-5.72-1.84-2.44-2.86-5.26-3.05-8.43h8.96c.25 2.61 1.48 4.73 3.67 6.39s5.07 2.48 8.62 2.48c3.3 0 5.91-.73 7.81-2.19s2.86-3.3 2.86-5.53-1.02-3.99-3.05-5.1c-2.03-1.11-5.18-2.21-9.43-3.29-3.88-1.02-7.04-2.05-9.48-3.1-2.45-1.05-4.54-2.61-6.29-4.67s-2.62-4.78-2.62-8.15c0-2.67.79-5.11 2.38-7.34 1.59-2.22 3.84-3.99 6.77-5.29 2.92-1.3 6.26-1.95 10.01-1.95 5.78 0 10.45 1.46 14.01 4.38 3.56 2.92 5.46 6.93 5.72 12.01h-8.67c-.19-2.73-1.29-4.92-3.29-6.57-2-1.65-4.69-2.48-8.05-2.48-3.11 0-5.59.67-7.43 2-1.84 1.33-2.76 3.08-2.76 5.24 0 1.72.56 3.13 1.67 4.24 1.11 1.11 2.51 2 4.19 2.67 1.68.67 4.02 1.41 7 2.24 3.75 1.02 6.8 2.02 9.15 3 2.35.98 4.37 2.46 6.05 4.43 1.68 1.97 2.56 4.54 2.62 7.72 0 2.86-.8 5.43-2.38 7.72-1.59 2.29-3.83 4.08-6.72 5.38-2.89 1.3-6.21 1.95-9.96 1.95-4 0-7.59-.68-10.77-2.05ZM658.02 127.39c-3.18-1.36-5.69-3.27-7.53-5.72-1.84-2.44-2.86-5.26-3.05-8.43h8.96c.25 2.61 1.48 4.73 3.67 6.39s5.07 2.48 8.62 2.48c3.3 0 5.91-.73 7.81-2.19s2.86-3.3 2.86-5.53-1.02-3.99-3.05-5.1c-2.03-1.11-5.18-2.21-9.43-3.29-3.88-1.02-7.04-2.05-9.48-3.1-2.45-1.05-4.54-2.61-6.29-4.67s-2.62-4.78-2.62-8.15c0-2.67.79-5.11 2.38-7.34 1.59-2.22 3.84-3.99 6.77-5.29 2.92-1.3 6.26-1.95 10.01-1.95 5.78 0 10.45 1.46 14.01 4.38 3.56 2.92 5.46 6.93 5.72 12.01h-8.67c-.19-2.73-1.29-4.92-3.29-6.57-2-1.65-4.69-2.48-8.05-2.48-3.11 0-5.59.67-7.43 2-1.84 1.33-2.76 3.08-2.76 5.24 0 1.72.56 3.13 1.67 4.24 1.11 1.11 2.51 2 4.19 2.67 1.68.67 4.02 1.41 7 2.24 3.75 1.02 6.8 2.02 9.15 3 2.35.98 4.37 2.46 6.05 4.43 1.68 1.97 2.56 4.54 2.62 7.72 0 2.86-.8 5.43-2.38 7.72-1.59 2.29-3.83 4.08-6.72 5.38-2.89 1.3-6.21 1.95-9.96 1.95-4 0-7.59-.68-10.77-2.05ZM326.66 209.72c-3.78 3.65-9.55 5.48-17.3 5.48h-12.77v27.73h-8.67v-66.42h21.44c7.49 0 13.2 1.81 17.1 5.43 3.91 3.62 5.86 8.29 5.86 14.01s-1.89 10.12-5.67 13.77Zm-6.62-4.81c2.29-2.1 3.43-5.08 3.43-8.96 0-8.19-4.7-12.29-14.1-12.29H296.6v24.39h12.77c4.83 0 8.39-1.05 10.67-3.15ZM343.1 202.57c2.16-4.03 5.13-7.16 8.91-9.39 3.78-2.22 7.99-3.34 12.63-3.34s8.54.99 11.91 2.95c3.37 1.97 5.88 4.45 7.53 7.43v-9.53h8.77v52.22h-8.77v-9.72c-1.72 3.05-4.27 5.57-7.67 7.57-3.4 2-7.35 3-11.86 3s-8.83-1.14-12.58-3.43-6.7-5.49-8.86-9.62c-2.16-4.13-3.24-8.83-3.24-14.1s1.08-10.02 3.24-14.05Zm38.59 3.86c-1.59-2.92-3.73-5.16-6.43-6.72-2.7-1.56-5.67-2.33-8.91-2.33s-6.19.76-8.86 2.29c-2.67 1.52-4.8 3.75-6.38 6.67-1.59 2.92-2.38 6.35-2.38 10.29s.79 7.48 2.38 10.44c1.59 2.95 3.72 5.21 6.38 6.76s5.62 2.33 8.86 2.33 6.21-.78 8.91-2.33c2.7-1.56 4.84-3.81 6.43-6.76 1.59-2.95 2.38-6.4 2.38-10.34s-.8-7.37-2.38-10.29ZM422.71 192.23c2.83-1.65 6.27-2.48 10.34-2.48v8.96h-2.29c-9.72 0-14.58 5.27-14.58 15.82v28.4h-8.67v-52.22h8.67v8.48c1.52-2.99 3.7-5.3 6.53-6.96ZM453.63 197.86v30.78c0 2.54.54 4.34 1.62 5.38 1.08 1.05 2.95 1.57 5.62 1.57h6.38v7.34h-7.81c-4.83 0-8.45-1.11-10.86-3.34-2.41-2.22-3.62-5.88-3.62-10.96v-30.78h-6.77v-7.15h6.77v-13.15h8.67v13.15h13.63v7.15h-13.63ZM518.62 195.52c3.94 3.85 5.91 9.39 5.91 16.63v30.78h-8.58v-29.54c0-5.21-1.3-9.19-3.91-11.96-2.61-2.76-6.16-4.14-10.67-4.14s-8.21 1.43-10.91 4.29c-2.7 2.86-4.05 7.02-4.05 12.48v28.87h-8.67v-52.22h8.67v7.43c1.72-2.67 4.05-4.73 7-6.19s6.21-2.19 9.77-2.19c6.35 0 11.5 1.92 15.44 5.77ZM586.08 220.06h-41.74c.32 5.14 2.08 9.16 5.29 12.05 3.21 2.89 7.1 4.34 11.67 4.34 3.75 0 6.88-.87 9.39-2.62 2.51-1.75 4.27-4.08 5.29-7h9.34c-1.4 5.02-4.19 9.1-8.39 12.25-4.19 3.14-9.4 4.72-15.63 4.72-4.95 0-9.39-1.11-13.29-3.34s-6.97-5.38-9.2-9.48c-2.22-4.1-3.33-8.84-3.33-14.25s1.08-10.13 3.24-14.2c2.16-4.06 5.19-7.19 9.1-9.38 3.91-2.19 8.4-3.29 13.48-3.29s9.34 1.08 13.15 3.24c3.81 2.16 6.75 5.13 8.81 8.91 2.06 3.78 3.1 8.05 3.1 12.82 0 1.65-.1 3.4-.29 5.24Zm-10.86-15.58c-1.46-2.38-3.45-4.19-5.96-5.43-2.51-1.24-5.29-1.86-8.34-1.86-4.38 0-8.12 1.4-11.2 4.19-3.08 2.8-4.84 6.67-5.29 11.63h32.97c0-3.3-.73-6.15-2.19-8.53ZM613 192.23c2.83-1.65 6.27-2.48 10.34-2.48v8.96h-2.29c-9.72 0-14.58 5.27-14.58 15.82v28.4h-8.67v-52.22h8.67v8.48c1.52-2.99 3.7-5.3 6.53-6.96Z"/>
</svg>
