<svg xmlns="http://www.w3.org/2000/svg" fill="none" viewBox="0 0 159 52" height="40">
    <path fill="#4e94d7" d="M52.027 28.363v23.311h-5.618v-9.597h-8.74v9.597h-5.618v-23.31h5.618v9.131h8.74v-9.132h5.618Zm2.938 14.014c0-1.904.35-3.575 1.051-5.014.723-1.44 1.698-2.546 2.924-3.32 1.227-.776 2.596-1.163 4.107-1.163 1.293 0 2.42.266 3.384.797.986.531 1.742 1.228 2.267 2.092v-2.623h5.619v18.529h-5.619V49.05c-.547.864-1.314 1.561-2.3 2.092-.963.531-2.091.797-3.384.797-1.49 0-2.847-.387-4.074-1.162-1.226-.797-2.201-1.915-2.924-3.354-.7-1.461-1.051-3.143-1.051-5.047Zm13.733.033c0-1.417-.394-2.535-1.183-3.354-.766-.819-1.708-1.228-2.825-1.228s-2.07.41-2.858 1.228c-.767.797-1.15 1.904-1.15 3.32 0 1.418.383 2.547 1.15 3.388.788.819 1.74 1.228 2.858 1.228s2.059-.41 2.825-1.228c.79-.82 1.183-1.937 1.183-3.354Zm36.001-9.264-4.96 18.528h-6.21l-2.892-12.02-2.99 12.02h-6.176l-4.994-18.528h5.618l2.595 13.249 3.089-13.25h5.947l3.12 13.183 2.564-13.182h5.289Zm19.424 8.965c0 .532-.032 1.085-.098 1.66H111.31c.088 1.152.449 2.037 1.084 2.657.658.598 1.457.897 2.399.897 1.402 0 2.376-.598 2.923-1.794h5.981a8.228 8.228 0 0 1-1.676 3.288c-.789.974-1.785 1.738-2.99 2.291-1.205.553-2.552.83-4.041.83-1.796 0-3.395-.387-4.797-1.162-1.402-.775-2.497-1.882-3.286-3.32-.788-1.44-1.182-3.122-1.182-5.048 0-1.926.383-3.608 1.15-5.047.788-1.44 1.883-2.546 3.285-3.32 1.402-.776 3.012-1.163 4.83-1.163 1.774 0 3.351.376 4.731 1.129a7.958 7.958 0 0 1 3.22 3.22c.788 1.396 1.182 3.023 1.182 4.882Zm-5.749-1.494c0-.974-.328-1.749-.986-2.324-.657-.576-1.479-.864-2.464-.864-.942 0-1.741.277-2.399.83-.635.554-1.029 1.34-1.182 2.358h7.031Z"/>
    <path fill="#4e94d7" fill-rule="evenodd" d="M38.475 8.9C24.047 9.975 7.285 20.127.633 25.88c1.014-4.814 6.758-10.03 9.504-12.037h-6.02c1.373-2.006 5.196-6.177 9.504-6.81L8.236 4.815c3.421-1.9 9.768-1.636 12.513-1.267L16.948.063c18.532-.791 30.412 6.02 31.837 9.82-.633-.38-4.006-1.073-4.956-1.073-2.133-.124-3.176-.182-5.354.09Zm-4.38-.514c-1.587-3.212 2.709-5.578 6.236-.657-2.501.075-3.724.115-6.237.657Z" clip-rule="evenodd"/>
    <path fill="#4e94d7" d="M54.33 19.387C49.895 12 24.596 18.17 21.232 26.257c-2.221 1.267-5.454 2.799-8.738 4.355C6.882 33.272 1.12 36.002 0 37.6 17.582 11.15 56.864 3.548 54.33 19.387Zm77.61 32.207h-7.436l8.753-8.928-9.275-9.462h7.436l5.558 5.67c5.998-5.159 10.756-11.289 22.023-11.289-7.512 4.342-18.305 15.08-18.305 15.08l-8.754 8.93Zm17.509 0h-7.437l-3.543-3.614 3.71-3.8 7.27 7.414Z"/>
</svg>
