<?xml version="1.0" encoding="utf-8"?>
<!-- Generator: Adobe Illustrator 26.4.1, SVG Export Plug-In . SVG Version: 6.00 Build 0)  -->
<svg version="1.1" xmlns="http://www.w3.org/2000/svg" xmlns:xlink="http://www.w3.org/1999/xlink" x="0px" y="0px"
	 viewBox="0 0 500 500" style="enable-background:new 0 0 500 500;" xml:space="preserve">
<style type="text/css">
	.st0{opacity:0.1;fill:#4E94D7;}
	.st1{fill:none;stroke:#16122C;stroke-linejoin:round;stroke-miterlimit:10;stroke-dasharray:2;}
	.st2{fill:#3F7AAA;}
	.st3{fill:#4E94D7;}
	.st4{fill:none;stroke:#16122C;stroke-linecap:round;stroke-linejoin:round;stroke-miterlimit:10;}
	.st5{fill:#FFFFFF;stroke:#16122C;stroke-miterlimit:10;}
	.st6{fill:#FFFFFF;}
	.st7{fill:#16122C;stroke:#16122C;stroke-miterlimit:10;}
	.st8{fill-rule:evenodd;clip-rule:evenodd;fill:#4E94D7;}
	.st9{fill-rule:evenodd;clip-rule:evenodd;fill:#FFFFFF;}
	.st10{fill:#16122C;}
	.st11{opacity:0.3;fill:#16122C;}
	.st12{fill:none;stroke:#16122C;stroke-miterlimit:10;}
	.st13{fill:#4E94D7;stroke:#16122C;stroke-miterlimit:10;}
</style>
<g id="Background_Simple">
</g>
<g id="Clouds">
</g>
<g id="Circle">
</g>
<g id="Floor">
</g>
<g id="Clock">
</g>
<g id="Ball">
</g>
<g id="Apple">
</g>
<g id="Bottle">
</g>
<g id="Heart">
</g>
<g id="Carrot">
</g>
<g id="Orange">
</g>
<g id="Plants_1_">
</g>
<g id="Character_2">
</g>
<g id="Character_1">
	<path class="st0" d="M467.6,119.3c-1.6-2.7-3.2-5.3-5-7.9c-23.2-34.3-63.1-57.8-102.3-68.5c-17.2-4.7-34.9-7.1-52.7-7.7
		c-116.6-4-163.1,88-201.6,111.7S8.1,211.2,12.1,296.2c4,85,65.2,165,183.8,170c118.6,4.9,126.5-48.4,192.7-68.2
		c43.8-13.1,75-57.3,90.2-98.1C499.6,244.2,498.6,171.9,467.6,119.3z"/>
	<circle class="st1" cx="263.5" cy="246" r="178.5"/>
	<polygon class="st2" points="263.3,38.1 262.9,39.5 262.9,78.4 263.3,78.8 281.4,68.2 	"/>
	<polygon class="st3" points="263.3,38.1 245.2,68.2 263.3,78.8 263.3,59.9 	"/>
	<polygon class="st2" points="263.3,82.3 263.1,82.5 263.1,96.4 263.3,97.1 281.4,71.6 	"/>
	<polygon class="st3" points="263.3,97.1 263.3,82.3 245.2,71.6 	"/>
	<polygon class="st2" points="263.3,78.8 281.4,68.2 263.3,59.9 	"/>
	<polygon class="st3" points="245.2,68.2 263.3,78.8 263.3,59.9 	"/>
	<path class="st3" d="M103.9,137.5l0,9.1l7.8,4.6v5.3l-12.3-7.2v-14.5L103.9,137.5L103.9,137.5z M103.9,128.4v5.3l-4.5-2.7v-5.3
		l4.5-2.7l4.5,2.7L103.9,128.4L103.9,128.4z M114.9,125.7l4.5-2.7l4.5,2.7l-4.5,2.7L114.9,125.7L114.9,125.7z"/>
	<path class="st3" d="M107.2,144.7v-5.3l4.5,2.7v5.3L107.2,144.7L107.2,144.7z M114.9,153.1l4.5,2.7l4.5-2.7v5.3l-4.5,2.7l-4.5-2.7
		V153.1L114.9,153.1z M130.5,125.7l4.5-2.7l4.5,2.7v5.3l-4.5,2.7v-5.3L130.5,125.7L130.5,125.7L130.5,125.7z M135,146.6l0-9.1
		l4.5-2.7v14.5l-12.3,7.2v-5.3L135,146.6L135,146.6L135,146.6z"/>
	<polygon class="st3" points="131.8,144.7 127.2,147.4 127.2,142.1 131.8,139.4 	"/>
	<polygon class="st3" points="131.8,130.3 131.8,135.6 124,140.2 124,149.3 119.5,152 115,149.3 115,140.2 107.2,135.6 107.2,130.3 
		111.7,127.6 119.5,132.2 127.2,127.6 131.8,130.3 131.8,130.3 	"/>
	<polygon class="st3" points="107.2,121.1 119.5,113.9 131.8,121.1 127.2,123.8 119.5,119.2 111.7,123.8 107.2,121.1 	"/>
	<g>
		<path class="st3" d="M401.5,163.6c0.3-0.3,0.7-0.5,1.1-0.5h37.9c0.7,0,1,0.8,0.5,1.3l-7.5,7.5c-0.3,0.3-0.7,0.5-1.1,0.5h-37.9
			c-0.7,0-1-0.8-0.5-1.3L401.5,163.6z"/>
		<path class="st3" d="M401.5,135.7c0.3-0.3,0.7-0.5,1.1-0.5h37.9c0.7,0,1,0.8,0.5,1.3l-7.5,7.5c-0.3,0.3-0.7,0.5-1.1,0.5h-37.9
			c-0.7,0-1-0.8-0.5-1.3L401.5,135.7z"/>
		<path class="st3" d="M433.5,149.6c-0.3-0.3-0.7-0.5-1.1-0.5h-37.9c-0.7,0-1,0.8-0.5,1.3l7.5,7.5c0.3,0.3,0.7,0.5,1.1,0.5h37.9
			c0.7,0,1-0.8,0.5-1.3L433.5,149.6z"/>
	</g>
	<g>
		<path class="st4" d="M430.3,45.5c-2.5-2.6-7-5.1-14.6-5.3C398.4,39.8,403,52,398.4,54.9c-4.6,2.9-5.9-1.7-10.5,1.3
			c-4.6,2.9-2.5,8.8-6.3,9.7c-3.8,0.8-8.8-3.8-13.4-0.8c-4.6,2.9-4.6,5.5-6.7,5.5c-2.1,0-6.3-1.7-8.8,0c-2.5,1.7-5.5,3.8-5.5,3.8
			h45.1"/>
		<path class="st4" d="M435,53c-0.4-0.2-0.8-0.4-1.3-0.6c0,0-0.1-2-1.5-4.4"/>
		<path class="st4" d="M398.1,74.2h55.4c0,0,1.3-3.8-3.4-6.3c-4.6-2.5-6.7-0.4-8.4-2.5c-1.5-1.9,3.3-6.4-4.5-11.2"/>
	</g>
	<g>
		<path class="st4" d="M124.4,63c-1-1-2.7-2-5.7-2c-6.7-0.2-4.9,4.6-6.7,5.7c-1.8,1.1-2.3-0.7-4.1,0.5c-1.8,1.1-1,3.4-2.4,3.7
			c-1.5,0.3-3.4-1.5-5.2-0.3c-1.8,1.1-1.8,2.1-2.6,2.1c-0.8,0-2.4-0.7-3.4,0c-1,0.7-2.1,1.5-2.1,1.5h17.5"/>
		<path class="st4" d="M126.3,66c-0.2-0.1-0.3-0.2-0.5-0.2c0,0-0.1-0.8-0.6-1.7"/>
		<path class="st4" d="M111.9,74.2h21.5c0,0,0.5-1.5-1.3-2.4c-1.8-1-2.6-0.2-3.3-1c-0.6-0.7,1.3-2.5-1.7-4.4"/>
	</g>
	<g>
		<path class="st4" d="M365.3,35.3c-1-1-2.7-2-5.7-2c-6.7-0.2-4.9,4.6-6.7,5.7c-1.8,1.1-2.3-0.7-4.1,0.5c-1.8,1.1-1,3.4-2.4,3.7
			c-1.5,0.3-3.4-1.5-5.2-0.3c-1.8,1.1-1.8,2.1-2.6,2.1c-0.8,0-2.4-0.7-3.4,0c-1,0.7-2.1,1.5-2.1,1.5h17.5"/>
		<path class="st4" d="M367.1,38.2c-0.2-0.1-0.3-0.2-0.5-0.2c0,0-0.1-0.8-0.6-1.7"/>
		<path class="st4" d="M352.8,46.4h21.5c0,0,0.5-1.5-1.3-2.4c-1.8-1-2.6-0.2-3.3-1c-0.6-0.7,1.3-2.5-1.7-4.4"/>
	</g>
	<g>
		<line class="st5" x1="397.6" y1="458.9" x2="437.4" y2="458.9"/>
		<line class="st5" x1="76.3" y1="458.9" x2="390.6" y2="458.9"/>
	</g>
	<path class="st6" d="M117.4,303.6c0,12.2-9.9,22.1-22.1,22.1s-22.1-9.9-22.1-22.1c0-12.2,9.9-22.1,22.1-22.1
		S117.4,291.4,117.4,303.6z"/>
	<path id="_149931032" class="st3" d="M95.3,281.5c-12.2,0-22.1,9.9-22.1,22.1c0,2.4,0.4,4.8,1.1,7h6.6V292l14.4,14.3l14.3-14.3
		v18.6h6.6c0.7-2.2,1.1-4.5,1.1-7C117.4,291.4,107.5,281.6,95.3,281.5L95.3,281.5z"/>
	<path id="_149931160" class="st7" d="M92,309.7l-6.3-6.3v11.7h-4.8l-4.5,0c3.9,6.4,10.9,10.6,18.9,10.6s15-4.3,18.9-10.6h-9.3
		v-11.7l-6.3,6.3l-3.3,3.3L92,309.7L92,309.7L92,309.7z"/>
	<path class="st8" d="M406.4,284.9l-9.6,20.2c-0.1,0.2,0,0.3,0.1,0.5l25.9,24.8c0.2,0.1,0.4,0.1,0.5,0l25.9-24.8
		c0.1-0.1,0.2-0.3,0.1-0.5l-9.6-20.2c-0.1-0.1-0.2-0.2-0.4-0.2h-32.7C406.6,284.7,406.4,284.8,406.4,284.9
		C406.4,284.9,406.4,284.9,406.4,284.9z"/>
	<path class="st9" d="M426.4,307.2L426.4,307.2c-0.2,0-1.1,0.1-3.3,0.1c-1.7,0-2.9-0.1-3.3-0.1l0,0c-6.6-0.3-11.5-1.4-11.5-2.8
		s4.9-2.5,11.5-2.8v4.5c0.4,0,1.7,0.1,3.4,0.1c2,0,3.1-0.1,3.3-0.1v-4.5c6.6,0.3,11.5,1.4,11.5,2.8S433,306.9,426.4,307.2
		L426.4,307.2L426.4,307.2z M426.4,301.1v-4h9.2v-6.1h-25v6.1h9.2v4c-7.5,0.3-13.1,1.8-13.1,3.6s5.6,3.2,13.1,3.6v12.9h6.6v-12.9
		c7.4-0.3,13-1.8,13-3.6S433.8,301.4,426.4,301.1L426.4,301.1L426.4,301.1z M426.4,301.1L426.4,301.1z"/>
	<g>
		<path class="st10" d="M433.5,399.4c0,0,0.8-3.1,0.9-3.3c0.3-2.3-0.4-7-2.8-8.1c-1.7-0.8-3.6,0.2-4.2,1.9c-0.6,1.7,0.2,3.9,1.1,5.3
			C429.6,397,433.5,399.4,433.5,399.4z"/>
		<path class="st10" d="M387,398.4c1.9,0.8,6.5,0.7,6.5,0.7c0,0-1-3-1.1-3.2c-1-2.1-4.2-5.6-6.8-5.2c-1.9,0.3-2.9,2.1-2.5,3.9
			C383.6,396.4,385.4,397.7,387,398.4z"/>
		<path class="st10" d="M388.6,411.8c1.9,0.3,6.1-0.9,6.4-1c0.6,2.3,1.5,4.6,2.5,6.9c0.6,1.3,1.2,2.6,1.8,3.9
			c-0.4-0.5-0.7-1-0.8-1.1c-1.5-1.8-5.5-4.3-7.9-3.3c-1.7,0.7-2.2,2.8-1.4,4.4c0.9,1.6,3,2.4,4.8,2.7c1.8,0.3,5.3-0.7,6.2-1
			c0.2,0.5,0.5,1,0.7,1.5c1.2,2.4,2.4,4.7,3.5,7.1c0.4,0.8,0.7,1.7,1.1,2.5c-0.3-0.5-0.6-0.9-0.7-1c-1.5-1.8-5.5-4.3-7.9-3.3
			c-1.7,0.7-2.2,2.8-1.4,4.4c0.9,1.6,3,2.4,4.8,2.7c1.7,0.2,4.9-0.6,6-0.9c0.3,0.9,0.7,1.7,1,2.6c0.2,0.6,0.4,1.1,0.6,1.7
			c0.2,0.6,0.3,1.2,0.5,1.7c0.3,1.1,0.6,2.3,0.8,3.4c0.2,0.8,0.3,1.5,0.5,2.2c-0.4-0.8-1.2-2.4-1.2-2.6c-1.2-2-4.8-5.1-7.4-4.4
			c-1.8,0.5-2.6,2.4-2,4.1c0.6,1.7,2.6,2.9,4.3,3.4c1.8,0.6,5.9,0,6.4,0c0.2,1.2,0.5,2.4,0.7,3.5c0.4,2.3,0.7,4.5,1,6.3h1.7
			c-0.3-1.9-0.7-4.1-1.2-6.6c-0.2-1.2-0.5-2.6-0.8-3.9c0.3-0.1,2-0.8,3.6-1.7c1.3,1.5,4.8,3.2,5.2,3.4c-0.5,1.1-0.9,2.3-1.4,3.3
			c-0.9,2.1-1.7,3.9-2.5,5.5h1.8c0.6-1.4,1.4-3.1,2.1-4.9c0.5-1.2,1-2.4,1.5-3.7c0.5,0.1,4.5,0.9,6.4,0.5c1.7-0.4,3.8-1.3,4.5-3
			c0.7-1.6,0.1-3.7-1.7-4.3c-2.5-0.8-6.3,2-7.7,3.9c-0.1,0.1-0.8,1.4-1.3,2.2c0.2-0.5,0.4-1,0.6-1.6c0.4-1.1,0.8-2.2,1.2-3.3
			c0.2-0.6,0.3-1.2,0.5-1.7c0.2-0.6,0.3-1.2,0.5-1.8c0.3-1.4,0.6-2.9,0.9-4.3c0.9,0.3,4.3,1.5,6.1,1.4c1.7-0.1,3.9-0.8,4.9-2.3
			c1-1.5,0.6-3.6-1-4.5c-2.3-1.2-6.5,1-8.2,2.7c-0.1,0.1-1.2,1.4-1.7,2.2c0.1-0.9,0.3-1.8,0.4-2.7c0.3-2.6,0.6-5.2,0.8-7.9
			c0.1-0.8,0.2-1.6,0.3-2.4c0.3,0.1,4.3,1.6,6.3,1.5c1.7-0.1,3.9-0.8,4.9-2.3c1-1.5,0.6-3.6-1-4.5c-2.3-1.2-6.5,1-8.2,2.7
			c-0.1,0.1-1.6,2-2,2.5c0.2-1.8,0.4-3.5,0.7-5.3c0.4-2.4,0.9-4.7,1.5-6.9c0.2,0.1,4.3,1.6,6.3,1.5c1.7-0.1,3.9-0.8,4.9-2.3
			c1-1.5,0.6-3.6-1-4.5c-2.3-1.2-6.5,1-8.2,2.7c-0.1,0.1-1.3,1.6-1.8,2.3c-0.1,0-0.1,0-0.1-0.1c0.7-2.4,1.7-4.6,2.7-6.6
			c0.6-1.2,1.2-2.2,1.9-3.3c0.7,0.4,4.2,2,6,2.1c1.7,0.1,4-0.3,5.2-1.8c1.1-1.4,1-3.5-0.5-4.6c-2.2-1.4-6.6,0.3-8.4,1.8
			c-0.1,0.1-1,1-1.7,1.7c0.3-0.5,0.6-0.9,0.9-1.4c1.1-1.7,2.2-3.1,3.2-4.4c0.6-0.7,1.1-1.4,1.6-1.9c0.9,0,4.6-0.1,6.2-0.9
			c1.6-0.7,3.4-2.1,3.8-3.9c0.4-1.8-0.7-3.6-2.6-3.8c-2.6-0.3-5.7,3.3-6.7,5.4c-0.1,0.2-1,3.2-1,3.2c0,0,0,0,0.1,0
			c-0.5,0.6-1,1.2-1.6,1.8c-1,1.3-2.2,2.7-3.3,4.3c-1.1,1.6-2.3,3.4-3.4,5.4c-1.1,2-2.1,4.2-2.9,6.6c0,0,0,0.1,0,0.1
			c0-0.8,0-2.9,0-3.1c-0.3-2.3-2.2-6.6-4.8-7.1c-1.9-0.3-3.4,1.1-3.6,2.9c-0.2,1.8,1.2,3.7,2.5,4.9c1.5,1.3,5.5,2.6,5.9,2.7
			c-0.7,2.3-1.3,4.7-1.7,7.1c-0.3,1.4-0.5,2.8-0.6,4.2c0-0.7,0-1.3,0-1.3c-0.3-2.3-2.2-6.6-4.8-7.1c-1.9-0.3-3.4,1.1-3.6,2.9
			c-0.2,1.8,1.2,3.7,2.5,4.9c1.3,1.2,4.8,2.3,5.7,2.6c-0.1,0.5-0.1,1.1-0.2,1.6c-0.3,2.6-0.6,5.3-1,7.8c-0.1,0.9-0.3,1.8-0.5,2.7
			c0-0.6,0-1.1,0-1.2c-0.3-2.3-2.2-6.6-4.8-7.1c-1.9-0.3-3.4,1.1-3.6,2.9c-0.2,1.8,1.2,3.7,2.5,4.9c1.3,1.1,4.4,2.2,5.5,2.6
			c-0.2,0.9-0.4,1.8-0.6,2.7c-0.2,0.6-0.3,1.2-0.5,1.7c-0.2,0.6-0.4,1.2-0.6,1.7c-0.4,1.1-0.8,2.2-1.2,3.2c-0.3,0.7-0.6,1.4-0.8,2.1
			c0.1-0.9,0.4-2.7,0.4-2.8c0-1.6-0.5-4.1-1.6-5.9c0-0.2,0-0.5,0-0.7c-0.3-1.8-2-3.1-3.8-2.6c-2.5,0.7-4.1,5.1-4.3,7.5
			c0,0.1,0.1,1.6,0.2,2.6c-0.1-0.6-0.2-1.1-0.4-1.7c-0.3-1.1-0.6-2.2-0.9-3.4c-0.2-0.6-0.3-1.1-0.5-1.7c-0.2-0.6-0.4-1.2-0.6-1.8
			c-0.5-1.4-1.1-2.7-1.7-4.1c1-0.2,4.4-1.1,5.8-2.2c1.4-1.1,2.9-2.8,2.8-4.7c0-1.8-1.5-3.4-3.3-3.2c-2.6,0.3-4.9,4.4-5.3,6.7
			c0,0.1-0.2,1.8-0.3,2.8c-0.4-0.8-0.7-1.6-1.1-2.4c-1.2-2.3-2.4-4.7-3.7-7c-0.4-0.7-0.7-1.4-1.1-2.1c0.3-0.1,4.5-1,6.1-2.2
			c1.4-1.1,2.9-2.8,2.8-4.7c0-1.8-1.5-3.4-3.3-3.2c-2.6,0.3-4.9,4.4-5.3,6.7c0,0.2-0.3,2.6-0.3,3.2c-0.8-1.6-1.6-3.2-2.4-4.8
			c-1-2.2-1.9-4.4-2.6-6.6c0.2,0,4.5-1,6.1-2.2c1.4-1.1,2.9-2.8,2.8-4.7c0-1.8-1.5-3.4-3.3-3.2c-2.6,0.3-4.9,4.4-5.3,6.7
			c0,0.2-0.2,2-0.3,2.9c-0.1,0-0.1,0-0.1,0c-0.7-2.4-1.1-4.7-1.3-7c-0.1-1.3-0.2-2.6-0.3-3.8c0.8-0.1,4.6-0.6,6.2-1.5
			c1.5-0.9,3.1-2.5,3.3-4.3c0.2-1.8-1.1-3.5-3-3.5c-2.6,0-5.3,3.9-6,6.1c0,0.1-0.3,1.4-0.5,2.3c0-0.6,0-1.1,0-1.6
			c0-2,0.1-3.8,0.3-5.4c0.1-0.9,0.2-1.7,0.3-2.5c0.8-0.5,3.8-2.7,4.7-4.2c0.9-1.5,1.7-3.6,1-5.4c-0.7-1.7-2.6-2.6-4.3-1.8
			c-2.3,1.2-2.9,5.9-2.6,8.2c0,0.2,0.9,3.3,1,3.2c0,0,0,0,0,0c-0.1,0.7-0.2,1.5-0.3,2.4c-0.2,1.6-0.3,3.4-0.4,5.4
			c-0.1,2-0.1,4.1,0.2,6.4c0.2,2.3,0.5,4.7,1.2,7.1c0,0,0,0.1,0,0.1c-0.4-0.6-1.6-2.4-1.7-2.5c-1.5-1.8-5.5-4.3-7.9-3.3
			c-1.7,0.7-2.2,2.8-1.4,4.4C384.7,410.7,386.9,411.5,388.6,411.8z"/>
		<path class="st11" d="M387,398.4c1.9,0.8,6.5,0.7,6.5,0.7c0,0-1-3-1.1-3.2c-1-2.1-4.2-5.6-6.8-5.2c-1.9,0.3-2.9,2.1-2.5,3.9
			C383.6,396.4,385.4,397.7,387,398.4z"/>
		<path class="st11" d="M433.5,399.4c0,0,0.8-3.1,0.9-3.3c0.3-2.3-0.4-7-2.8-8.1c-1.7-0.8-3.6,0.2-4.2,1.9c-0.6,1.7,0.2,3.9,1.1,5.3
			C429.6,397,433.5,399.4,433.5,399.4z"/>
		<path class="st11" d="M388.6,411.8c1.9,0.3,6.1-0.9,6.4-1c0.6,2.3,1.5,4.6,2.5,6.9c0.6,1.3,1.2,2.6,1.8,3.9
			c-0.4-0.5-0.7-1-0.8-1.1c-1.5-1.8-5.5-4.3-7.9-3.3c-1.7,0.7-2.2,2.8-1.4,4.4c0.9,1.6,3,2.4,4.8,2.7c1.8,0.3,5.3-0.7,6.2-1
			c0.2,0.5,0.5,1,0.7,1.5c1.2,2.4,2.4,4.7,3.5,7.1c0.4,0.8,0.7,1.7,1.1,2.5c-0.3-0.5-0.6-0.9-0.7-1c-1.5-1.8-5.5-4.3-7.9-3.3
			c-1.7,0.7-2.2,2.8-1.4,4.4c0.9,1.6,3,2.4,4.8,2.7c1.7,0.2,4.9-0.6,6-0.9c0.3,0.9,0.7,1.7,1,2.6c0.2,0.6,0.4,1.1,0.6,1.7
			c0.2,0.6,0.3,1.2,0.5,1.7c0.3,1.1,0.6,2.3,0.8,3.4c0.2,0.8,0.3,1.5,0.5,2.2c-0.4-0.8-1.2-2.4-1.2-2.6c-1.2-2-4.8-5.1-7.4-4.4
			c-1.8,0.5-2.6,2.4-2,4.1c0.6,1.7,2.6,2.9,4.3,3.4c1.8,0.6,5.9,0,6.4,0c0.2,1.2,0.5,2.4,0.7,3.5c0.4,2.3,0.7,4.5,1,6.3h1.7
			c-0.3-1.9-0.7-4.1-1.2-6.6c-0.2-1.2-0.5-2.6-0.8-3.9c0.3-0.1,2-0.8,3.6-1.7c1.3,1.5,4.8,3.2,5.2,3.4c-0.5,1.1-0.9,2.3-1.4,3.3
			c-0.9,2.1-1.7,3.9-2.5,5.5h1.8c0.6-1.4,1.4-3.1,2.1-4.9c0.5-1.2,1-2.4,1.5-3.7c0.5,0.1,4.5,0.9,6.4,0.5c1.7-0.4,3.8-1.3,4.5-3
			c0.7-1.6,0.1-3.7-1.7-4.3c-2.5-0.8-6.3,2-7.7,3.9c-0.1,0.1-0.8,1.4-1.3,2.2c0.2-0.5,0.4-1,0.6-1.6c0.4-1.1,0.8-2.2,1.2-3.3
			c0.2-0.6,0.3-1.2,0.5-1.7c0.2-0.6,0.3-1.2,0.5-1.8c0.3-1.4,0.6-2.9,0.9-4.3c0.9,0.3,4.3,1.5,6.1,1.4c1.7-0.1,3.9-0.8,4.9-2.3
			c1-1.5,0.6-3.6-1-4.5c-2.3-1.2-6.5,1-8.2,2.7c-0.1,0.1-1.2,1.4-1.7,2.2c0.1-0.9,0.3-1.8,0.4-2.7c0.3-2.6,0.6-5.2,0.8-7.9
			c0.1-0.8,0.2-1.6,0.3-2.4c0.3,0.1,4.3,1.6,6.3,1.5c1.7-0.1,3.9-0.8,4.9-2.3c1-1.5,0.6-3.6-1-4.5c-2.3-1.2-6.5,1-8.2,2.7
			c-0.1,0.1-1.6,2-2,2.5c0.2-1.8,0.4-3.5,0.7-5.3c0.4-2.4,0.9-4.7,1.5-6.9c0.2,0.1,4.3,1.6,6.3,1.5c1.7-0.1,3.9-0.8,4.9-2.3
			c1-1.5,0.6-3.6-1-4.5c-2.3-1.2-6.5,1-8.2,2.7c-0.1,0.1-1.3,1.6-1.8,2.3c-0.1,0-0.1,0-0.1-0.1c0.7-2.4,1.7-4.6,2.7-6.6
			c0.6-1.2,1.2-2.2,1.9-3.3c0.7,0.4,4.2,2,6,2.1c1.7,0.1,4-0.3,5.2-1.8c1.1-1.4,1-3.5-0.5-4.6c-2.2-1.4-6.6,0.3-8.4,1.8
			c-0.1,0.1-1,1-1.7,1.7c0.3-0.5,0.6-0.9,0.9-1.4c1.1-1.7,2.2-3.1,3.2-4.4c0.6-0.7,1.1-1.4,1.6-1.9c0.9,0,4.6-0.1,6.2-0.9
			c1.6-0.7,3.4-2.1,3.8-3.9c0.4-1.8-0.7-3.6-2.6-3.8c-2.6-0.3-5.7,3.3-6.7,5.4c-0.1,0.2-1,3.2-1,3.2c0,0,0,0,0.1,0
			c-0.5,0.6-1,1.2-1.6,1.8c-1,1.3-2.2,2.7-3.3,4.3c-1.1,1.6-2.3,3.4-3.4,5.4c-1.1,2-2.1,4.2-2.9,6.6c0,0,0,0.1,0,0.1
			c0-0.8,0-2.9,0-3.1c-0.3-2.3-2.2-6.6-4.8-7.1c-1.9-0.3-3.4,1.1-3.6,2.9c-0.2,1.8,1.2,3.7,2.5,4.9c1.5,1.3,5.5,2.6,5.9,2.7
			c-0.7,2.3-1.3,4.7-1.7,7.1c-0.3,1.4-0.5,2.8-0.6,4.2c0-0.7,0-1.3,0-1.3c-0.3-2.3-2.2-6.6-4.8-7.1c-1.9-0.3-3.4,1.1-3.6,2.9
			c-0.2,1.8,1.2,3.7,2.5,4.9c1.3,1.2,4.8,2.3,5.7,2.6c-0.1,0.5-0.1,1.1-0.2,1.6c-0.3,2.6-0.6,5.3-1,7.8c-0.1,0.9-0.3,1.8-0.5,2.7
			c0-0.6,0-1.1,0-1.2c-0.3-2.3-2.2-6.6-4.8-7.1c-1.9-0.3-3.4,1.1-3.6,2.9c-0.2,1.8,1.2,3.7,2.5,4.9c1.3,1.1,4.4,2.2,5.5,2.6
			c-0.2,0.9-0.4,1.8-0.6,2.7c-0.2,0.6-0.3,1.2-0.5,1.7c-0.2,0.6-0.4,1.2-0.6,1.7c-0.4,1.1-0.8,2.2-1.2,3.2c-0.3,0.7-0.6,1.4-0.8,2.1
			c0.1-0.9,0.4-2.7,0.4-2.8c0-1.6-0.5-4.1-1.6-5.9c0-0.2,0-0.5,0-0.7c-0.3-1.8-2-3.1-3.8-2.6c-2.5,0.7-4.1,5.1-4.3,7.5
			c0,0.1,0.1,1.6,0.2,2.6c-0.1-0.6-0.2-1.1-0.4-1.7c-0.3-1.1-0.6-2.2-0.9-3.4c-0.2-0.6-0.3-1.1-0.5-1.7c-0.2-0.6-0.4-1.2-0.6-1.8
			c-0.5-1.4-1.1-2.7-1.7-4.1c1-0.2,4.4-1.1,5.8-2.2c1.4-1.1,2.9-2.8,2.8-4.7c0-1.8-1.5-3.4-3.3-3.2c-2.6,0.3-4.9,4.4-5.3,6.7
			c0,0.1-0.2,1.8-0.3,2.8c-0.4-0.8-0.7-1.6-1.1-2.4c-1.2-2.3-2.4-4.7-3.7-7c-0.4-0.7-0.7-1.4-1.1-2.1c0.3-0.1,4.5-1,6.1-2.2
			c1.4-1.1,2.9-2.8,2.8-4.7c0-1.8-1.5-3.4-3.3-3.2c-2.6,0.3-4.9,4.4-5.3,6.7c0,0.2-0.3,2.6-0.3,3.2c-0.8-1.6-1.6-3.2-2.4-4.8
			c-1-2.2-1.9-4.4-2.6-6.6c0.2,0,4.5-1,6.1-2.2c1.4-1.1,2.9-2.8,2.8-4.7c0-1.8-1.5-3.4-3.3-3.2c-2.6,0.3-4.9,4.4-5.3,6.7
			c0,0.2-0.2,2-0.3,2.9c-0.1,0-0.1,0-0.1,0c-0.7-2.4-1.1-4.7-1.3-7c-0.1-1.3-0.2-2.6-0.3-3.8c0.8-0.1,4.6-0.6,6.2-1.5
			c1.5-0.9,3.1-2.5,3.3-4.3c0.2-1.8-1.1-3.5-3-3.5c-2.6,0-5.3,3.9-6,6.1c0,0.1-0.3,1.4-0.5,2.3c0-0.6,0-1.1,0-1.6
			c0-2,0.1-3.8,0.3-5.4c0.1-0.9,0.2-1.7,0.3-2.5c0.8-0.5,3.8-2.7,4.7-4.2c0.9-1.5,1.7-3.6,1-5.4c-0.7-1.7-2.6-2.6-4.3-1.8
			c-2.3,1.2-2.9,5.9-2.6,8.2c0,0.2,0.9,3.3,1,3.2c0,0,0,0,0,0c-0.1,0.7-0.2,1.5-0.3,2.4c-0.2,1.6-0.3,3.4-0.4,5.4
			c-0.1,2-0.1,4.1,0.2,6.4c0.2,2.3,0.5,4.7,1.2,7.1c0,0,0,0.1,0,0.1c-0.4-0.6-1.6-2.4-1.7-2.5c-1.5-1.8-5.5-4.3-7.9-3.3
			c-1.7,0.7-2.2,2.8-1.4,4.4C384.7,410.7,386.9,411.5,388.6,411.8z"/>
	</g>
	<g>
		<path class="st10" d="M114.6,399.4c0,0,0.8-3.1,0.9-3.3c0.3-2.3-0.4-7-2.8-8.1c-1.7-0.8-3.6,0.2-4.2,1.9c-0.6,1.7,0.2,3.9,1.1,5.3
			C110.7,397,114.6,399.4,114.6,399.4z"/>
		<path class="st10" d="M68.1,398.4c1.9,0.8,6.5,0.7,6.5,0.7c0,0-1-3-1.1-3.2c-1-2.1-4.2-5.6-6.8-5.2c-1.9,0.3-2.9,2.1-2.5,3.9
			C64.7,396.4,66.5,397.7,68.1,398.4z"/>
		<path class="st10" d="M69.7,411.8c1.9,0.3,6.1-0.9,6.4-1c0.6,2.3,1.5,4.6,2.5,6.9c0.6,1.3,1.2,2.6,1.8,3.9c-0.4-0.5-0.7-1-0.8-1.1
			c-1.5-1.8-5.5-4.3-7.9-3.3c-1.7,0.7-2.2,2.8-1.4,4.4c0.9,1.6,3,2.4,4.8,2.7c1.8,0.3,5.3-0.7,6.2-1c0.2,0.5,0.5,1,0.7,1.5
			c1.2,2.4,2.4,4.7,3.5,7.1c0.4,0.8,0.7,1.7,1.1,2.5c-0.3-0.5-0.6-0.9-0.7-1c-1.5-1.8-5.5-4.3-7.9-3.3c-1.7,0.7-2.2,2.8-1.4,4.4
			c0.9,1.6,3,2.4,4.8,2.7c1.7,0.2,4.9-0.6,6-0.9c0.3,0.9,0.7,1.7,1,2.6c0.2,0.6,0.4,1.1,0.6,1.7c0.2,0.6,0.3,1.2,0.5,1.7
			c0.3,1.1,0.6,2.3,0.8,3.4c0.2,0.8,0.3,1.5,0.5,2.2c-0.4-0.8-1.2-2.4-1.2-2.6c-1.2-2-4.8-5.1-7.4-4.4c-1.8,0.5-2.6,2.4-2,4.1
			c0.6,1.7,2.6,2.9,4.3,3.4c1.8,0.6,5.9,0,6.4,0c0.2,1.2,0.5,2.4,0.7,3.5c0.4,2.3,0.7,4.5,1,6.3h1.7c-0.3-1.9-0.7-4.1-1.2-6.6
			c-0.2-1.2-0.5-2.6-0.8-3.9c0.3-0.1,2-0.8,3.6-1.7c1.3,1.5,4.8,3.2,5.2,3.4c-0.5,1.1-0.9,2.3-1.4,3.3c-0.9,2.1-1.7,3.9-2.5,5.5h1.8
			c0.6-1.4,1.4-3.1,2.1-4.9c0.5-1.2,1-2.4,1.5-3.7c0.5,0.1,4.5,0.9,6.4,0.5c1.7-0.4,3.8-1.3,4.5-3c0.7-1.6,0.1-3.7-1.7-4.3
			c-2.5-0.8-6.3,2-7.7,3.9c-0.1,0.1-0.8,1.4-1.3,2.2c0.2-0.5,0.4-1,0.6-1.6c0.4-1.1,0.8-2.2,1.2-3.3c0.2-0.6,0.3-1.2,0.5-1.7
			c0.2-0.6,0.3-1.2,0.5-1.8c0.3-1.4,0.6-2.9,0.9-4.3c0.9,0.3,4.3,1.5,6.1,1.4c1.7-0.1,3.9-0.8,4.9-2.3c1-1.5,0.6-3.6-1-4.5
			c-2.3-1.2-6.5,1-8.2,2.7c-0.1,0.1-1.2,1.4-1.7,2.2c0.1-0.9,0.3-1.8,0.4-2.7c0.3-2.6,0.6-5.2,0.8-7.9c0.1-0.8,0.2-1.6,0.3-2.4
			c0.3,0.1,4.3,1.6,6.3,1.5c1.7-0.1,3.9-0.8,4.9-2.3c1-1.5,0.6-3.6-1-4.5c-2.3-1.2-6.5,1-8.2,2.7c-0.1,0.1-1.6,2-2,2.5
			c0.2-1.8,0.4-3.5,0.7-5.3c0.4-2.4,0.9-4.7,1.5-6.9c0.2,0.1,4.3,1.6,6.3,1.5c1.7-0.1,3.9-0.8,4.9-2.3c1-1.5,0.6-3.6-1-4.5
			c-2.3-1.2-6.5,1-8.2,2.7c-0.1,0.1-1.3,1.6-1.8,2.3c-0.1,0-0.1,0-0.1-0.1c0.7-2.4,1.7-4.6,2.7-6.6c0.6-1.2,1.2-2.2,1.9-3.3
			c0.7,0.4,4.2,2,6,2.1c1.7,0.1,4-0.3,5.2-1.8c1.1-1.4,1-3.5-0.5-4.6c-2.2-1.4-6.6,0.3-8.4,1.8c-0.1,0.1-1,1-1.7,1.7
			c0.3-0.5,0.6-0.9,0.9-1.4c1.1-1.7,2.2-3.1,3.2-4.4c0.6-0.7,1.1-1.4,1.6-1.9c0.9,0,4.6-0.1,6.2-0.9c1.6-0.7,3.4-2.1,3.8-3.9
			c0.4-1.8-0.7-3.6-2.6-3.8c-2.6-0.3-5.7,3.3-6.7,5.4c-0.1,0.2-1,3.2-1,3.2c0,0,0,0,0.1,0c-0.5,0.6-1,1.2-1.6,1.8
			c-1,1.3-2.2,2.7-3.3,4.3c-1.1,1.6-2.3,3.4-3.4,5.4c-1.1,2-2.1,4.2-2.9,6.6c0,0,0,0.1,0,0.1c0-0.8,0-2.9,0-3.1
			c-0.3-2.3-2.2-6.6-4.8-7.1c-1.9-0.3-3.4,1.1-3.6,2.9c-0.2,1.8,1.2,3.7,2.5,4.9c1.5,1.3,5.5,2.6,5.9,2.7c-0.7,2.3-1.3,4.7-1.7,7.1
			c-0.3,1.4-0.5,2.8-0.6,4.2c0-0.7,0-1.3,0-1.3c-0.3-2.3-2.2-6.6-4.8-7.1c-1.9-0.3-3.4,1.1-3.6,2.9c-0.2,1.8,1.2,3.7,2.5,4.9
			c1.3,1.2,4.8,2.3,5.7,2.6c-0.1,0.5-0.1,1.1-0.2,1.6c-0.3,2.6-0.6,5.3-1,7.8c-0.1,0.9-0.3,1.8-0.5,2.7c0-0.6,0-1.1,0-1.2
			c-0.3-2.3-2.2-6.6-4.8-7.1c-1.9-0.3-3.4,1.1-3.6,2.9c-0.2,1.8,1.2,3.7,2.5,4.9c1.3,1.1,4.4,2.2,5.5,2.6c-0.2,0.9-0.4,1.8-0.6,2.7
			c-0.2,0.6-0.3,1.2-0.5,1.7c-0.2,0.6-0.4,1.2-0.6,1.7c-0.4,1.1-0.8,2.2-1.2,3.2c-0.3,0.7-0.6,1.4-0.8,2.1c0.1-0.9,0.4-2.7,0.4-2.8
			c0-1.6-0.5-4.1-1.6-5.9c0-0.2,0-0.5,0-0.7c-0.3-1.8-2-3.1-3.8-2.6c-2.5,0.7-4.1,5.1-4.3,7.5c0,0.1,0.1,1.6,0.2,2.6
			c-0.1-0.6-0.2-1.1-0.4-1.7c-0.3-1.1-0.6-2.2-0.9-3.4c-0.2-0.6-0.3-1.1-0.5-1.7c-0.2-0.6-0.4-1.2-0.6-1.8c-0.5-1.4-1.1-2.7-1.7-4.1
			c1-0.2,4.4-1.1,5.8-2.2c1.4-1.1,2.9-2.8,2.8-4.7c0-1.8-1.5-3.4-3.3-3.2c-2.6,0.3-4.9,4.4-5.3,6.7c0,0.1-0.2,1.8-0.3,2.8
			c-0.4-0.8-0.7-1.6-1.1-2.4c-1.2-2.3-2.4-4.7-3.7-7c-0.4-0.7-0.7-1.4-1.1-2.1c0.3-0.1,4.5-1,6.1-2.2c1.4-1.1,2.9-2.8,2.8-4.7
			c0-1.8-1.5-3.4-3.3-3.2c-2.6,0.3-4.9,4.4-5.3,6.7c0,0.2-0.3,2.6-0.3,3.2c-0.8-1.6-1.6-3.2-2.4-4.8c-1-2.2-1.9-4.4-2.6-6.6
			c0.2,0,4.5-1,6.1-2.2c1.4-1.1,2.9-2.8,2.8-4.7c0-1.8-1.5-3.4-3.3-3.2c-2.6,0.3-4.9,4.4-5.3,6.7c0,0.2-0.2,2-0.3,2.9
			c-0.1,0-0.1,0-0.1,0c-0.7-2.4-1.1-4.7-1.3-7c-0.1-1.3-0.2-2.6-0.3-3.8c0.8-0.1,4.6-0.6,6.2-1.5c1.5-0.9,3.1-2.5,3.3-4.3
			c0.2-1.8-1.1-3.5-3-3.5c-2.6,0-5.3,3.9-6,6.1c0,0.1-0.3,1.4-0.5,2.3c0-0.6,0-1.1,0-1.6c0-2,0.1-3.8,0.3-5.4
			c0.1-0.9,0.2-1.7,0.3-2.5c0.8-0.5,3.8-2.7,4.7-4.2c0.9-1.5,1.7-3.6,1-5.4c-0.7-1.7-2.6-2.6-4.3-1.8c-2.3,1.2-2.9,5.9-2.6,8.2
			c0,0.2,0.9,3.3,1,3.2c0,0,0,0,0,0c-0.1,0.7-0.2,1.5-0.3,2.4c-0.2,1.6-0.3,3.4-0.4,5.4c-0.1,2-0.1,4.1,0.2,6.4
			c0.2,2.3,0.5,4.7,1.2,7.1c0,0,0,0.1,0,0.1c-0.4-0.6-1.6-2.4-1.7-2.5c-1.5-1.8-5.5-4.3-7.9-3.3c-1.7,0.7-2.2,2.8-1.4,4.4
			C65.8,410.7,68,411.5,69.7,411.8z"/>
		<path class="st11" d="M68.1,398.4c1.9,0.8,6.5,0.7,6.5,0.7c0,0-1-3-1.1-3.2c-1-2.1-4.2-5.6-6.8-5.2c-1.9,0.3-2.9,2.1-2.5,3.9
			C64.7,396.4,66.5,397.7,68.1,398.4z"/>
		<path class="st11" d="M114.6,399.4c0,0,0.8-3.1,0.9-3.3c0.3-2.3-0.4-7-2.8-8.1c-1.7-0.8-3.6,0.2-4.2,1.9c-0.6,1.7,0.2,3.9,1.1,5.3
			C110.7,397,114.6,399.4,114.6,399.4z"/>
		<path class="st11" d="M69.7,411.8c1.9,0.3,6.1-0.9,6.4-1c0.6,2.3,1.5,4.6,2.5,6.9c0.6,1.3,1.2,2.6,1.8,3.9c-0.4-0.5-0.7-1-0.8-1.1
			c-1.5-1.8-5.5-4.3-7.9-3.3c-1.7,0.7-2.2,2.8-1.4,4.4c0.9,1.6,3,2.4,4.8,2.7c1.8,0.3,5.3-0.7,6.2-1c0.2,0.5,0.5,1,0.7,1.5
			c1.2,2.4,2.4,4.7,3.5,7.1c0.4,0.8,0.7,1.7,1.1,2.5c-0.3-0.5-0.6-0.9-0.7-1c-1.5-1.8-5.5-4.3-7.9-3.3c-1.7,0.7-2.2,2.8-1.4,4.4
			c0.9,1.6,3,2.4,4.8,2.7c1.7,0.2,4.9-0.6,6-0.9c0.3,0.9,0.7,1.7,1,2.6c0.2,0.6,0.4,1.1,0.6,1.7c0.2,0.6,0.3,1.2,0.5,1.7
			c0.3,1.1,0.6,2.3,0.8,3.4c0.2,0.8,0.3,1.5,0.5,2.2c-0.4-0.8-1.2-2.4-1.2-2.6c-1.2-2-4.8-5.1-7.4-4.4c-1.8,0.5-2.6,2.4-2,4.1
			c0.6,1.7,2.6,2.9,4.3,3.4c1.8,0.6,5.9,0,6.4,0c0.2,1.2,0.5,2.4,0.7,3.5c0.4,2.3,0.7,4.5,1,6.3h1.7c-0.3-1.9-0.7-4.1-1.2-6.6
			c-0.2-1.2-0.5-2.6-0.8-3.9c0.3-0.1,2-0.8,3.6-1.7c1.3,1.5,4.8,3.2,5.2,3.4c-0.5,1.1-0.9,2.3-1.4,3.3c-0.9,2.1-1.7,3.9-2.5,5.5h1.8
			c0.6-1.4,1.4-3.1,2.1-4.9c0.5-1.2,1-2.4,1.5-3.7c0.5,0.1,4.5,0.9,6.4,0.5c1.7-0.4,3.8-1.3,4.5-3c0.7-1.6,0.1-3.7-1.7-4.3
			c-2.5-0.8-6.3,2-7.7,3.9c-0.1,0.1-0.8,1.4-1.3,2.2c0.2-0.5,0.4-1,0.6-1.6c0.4-1.1,0.8-2.2,1.2-3.3c0.2-0.6,0.3-1.2,0.5-1.7
			c0.2-0.6,0.3-1.2,0.5-1.8c0.3-1.4,0.6-2.9,0.9-4.3c0.9,0.3,4.3,1.5,6.1,1.4c1.7-0.1,3.9-0.8,4.9-2.3c1-1.5,0.6-3.6-1-4.5
			c-2.3-1.2-6.5,1-8.2,2.7c-0.1,0.1-1.2,1.4-1.7,2.2c0.1-0.9,0.3-1.8,0.4-2.7c0.3-2.6,0.6-5.2,0.8-7.9c0.1-0.8,0.2-1.6,0.3-2.4
			c0.3,0.1,4.3,1.6,6.3,1.5c1.7-0.1,3.9-0.8,4.9-2.3c1-1.5,0.6-3.6-1-4.5c-2.3-1.2-6.5,1-8.2,2.7c-0.1,0.1-1.6,2-2,2.5
			c0.2-1.8,0.4-3.5,0.7-5.3c0.4-2.4,0.9-4.7,1.5-6.9c0.2,0.1,4.3,1.6,6.3,1.5c1.7-0.1,3.9-0.8,4.9-2.3c1-1.5,0.6-3.6-1-4.5
			c-2.3-1.2-6.5,1-8.2,2.7c-0.1,0.1-1.3,1.6-1.8,2.3c-0.1,0-0.1,0-0.1-0.1c0.7-2.4,1.7-4.6,2.7-6.6c0.6-1.2,1.2-2.2,1.9-3.3
			c0.7,0.4,4.2,2,6,2.1c1.7,0.1,4-0.3,5.2-1.8c1.1-1.4,1-3.5-0.5-4.6c-2.2-1.4-6.6,0.3-8.4,1.8c-0.1,0.1-1,1-1.7,1.7
			c0.3-0.5,0.6-0.9,0.9-1.4c1.1-1.7,2.2-3.1,3.2-4.4c0.6-0.7,1.1-1.4,1.6-1.9c0.9,0,4.6-0.1,6.2-0.9c1.6-0.7,3.4-2.1,3.8-3.9
			c0.4-1.8-0.7-3.6-2.6-3.8c-2.6-0.3-5.7,3.3-6.7,5.4c-0.1,0.2-1,3.2-1,3.2c0,0,0,0,0.1,0c-0.5,0.6-1,1.2-1.6,1.8
			c-1,1.3-2.2,2.7-3.3,4.3c-1.1,1.6-2.3,3.4-3.4,5.4c-1.1,2-2.1,4.2-2.9,6.6c0,0,0,0.1,0,0.1c0-0.8,0-2.9,0-3.1
			c-0.3-2.3-2.2-6.6-4.8-7.1c-1.9-0.3-3.4,1.1-3.6,2.9c-0.2,1.8,1.2,3.7,2.5,4.9c1.5,1.3,5.5,2.6,5.9,2.7c-0.7,2.3-1.3,4.7-1.7,7.1
			c-0.3,1.4-0.5,2.8-0.6,4.2c0-0.7,0-1.3,0-1.3c-0.3-2.3-2.2-6.6-4.8-7.1c-1.9-0.3-3.4,1.1-3.6,2.9c-0.2,1.8,1.2,3.7,2.5,4.9
			c1.3,1.2,4.8,2.3,5.7,2.6c-0.1,0.5-0.1,1.1-0.2,1.6c-0.3,2.6-0.6,5.3-1,7.8c-0.1,0.9-0.3,1.8-0.5,2.7c0-0.6,0-1.1,0-1.2
			c-0.3-2.3-2.2-6.6-4.8-7.1c-1.9-0.3-3.4,1.1-3.6,2.9c-0.2,1.8,1.2,3.7,2.5,4.9c1.3,1.1,4.4,2.2,5.5,2.6c-0.2,0.9-0.4,1.8-0.6,2.7
			c-0.2,0.6-0.3,1.2-0.5,1.7c-0.2,0.6-0.4,1.2-0.6,1.7c-0.4,1.1-0.8,2.2-1.2,3.2c-0.3,0.7-0.6,1.4-0.8,2.1c0.1-0.9,0.4-2.7,0.4-2.8
			c0-1.6-0.5-4.1-1.6-5.9c0-0.2,0-0.5,0-0.7c-0.3-1.8-2-3.1-3.8-2.6c-2.5,0.7-4.1,5.1-4.3,7.5c0,0.1,0.1,1.6,0.2,2.6
			c-0.1-0.6-0.2-1.1-0.4-1.7c-0.3-1.1-0.6-2.2-0.9-3.4c-0.2-0.6-0.3-1.1-0.5-1.7c-0.2-0.6-0.4-1.2-0.6-1.8c-0.5-1.4-1.1-2.7-1.7-4.1
			c1-0.2,4.4-1.1,5.8-2.2c1.4-1.1,2.9-2.8,2.8-4.7c0-1.8-1.5-3.4-3.3-3.2c-2.6,0.3-4.9,4.4-5.3,6.7c0,0.1-0.2,1.8-0.3,2.8
			c-0.4-0.8-0.7-1.6-1.1-2.4c-1.2-2.3-2.4-4.7-3.7-7c-0.4-0.7-0.7-1.4-1.1-2.1c0.3-0.1,4.5-1,6.1-2.2c1.4-1.1,2.9-2.8,2.8-4.7
			c0-1.8-1.5-3.4-3.3-3.2c-2.6,0.3-4.9,4.4-5.3,6.7c0,0.2-0.3,2.6-0.3,3.2c-0.8-1.6-1.6-3.2-2.4-4.8c-1-2.2-1.9-4.4-2.6-6.6
			c0.2,0,4.5-1,6.1-2.2c1.4-1.1,2.9-2.8,2.8-4.7c0-1.8-1.5-3.4-3.3-3.2c-2.6,0.3-4.9,4.4-5.3,6.7c0,0.2-0.2,2-0.3,2.9
			c-0.1,0-0.1,0-0.1,0c-0.7-2.4-1.1-4.7-1.3-7c-0.1-1.3-0.2-2.6-0.3-3.8c0.8-0.1,4.6-0.6,6.2-1.5c1.5-0.9,3.1-2.5,3.3-4.3
			c0.2-1.8-1.1-3.5-3-3.5c-2.6,0-5.3,3.9-6,6.1c0,0.1-0.3,1.4-0.5,2.3c0-0.6,0-1.1,0-1.6c0-2,0.1-3.8,0.3-5.4
			c0.1-0.9,0.2-1.7,0.3-2.5c0.8-0.5,3.8-2.7,4.7-4.2c0.9-1.5,1.7-3.6,1-5.4c-0.7-1.7-2.6-2.6-4.3-1.8c-2.3,1.2-2.9,5.9-2.6,8.2
			c0,0.2,0.9,3.3,1,3.2c0,0,0,0,0,0c-0.1,0.7-0.2,1.5-0.3,2.4c-0.2,1.6-0.3,3.4-0.4,5.4c-0.1,2-0.1,4.1,0.2,6.4
			c0.2,2.3,0.5,4.7,1.2,7.1c0,0,0,0.1,0,0.1c-0.4-0.6-1.6-2.4-1.7-2.5c-1.5-1.8-5.5-4.3-7.9-3.3c-1.7,0.7-2.2,2.8-1.4,4.4
			C65.8,410.7,68,411.5,69.7,411.8z"/>
	</g>
	<path class="st5" d="M338.4,443.7l7,12.8c0,0,3.6,1,7.6-1c3.9-2.1,8.1-5.2,10.9-6.3c2.9-1,11.5-6.5,13.8-10.7c2.3-4.2,3.1-7-0.8-6
		c-3.9,1-6.5,1.6-10.2,2.1c-3.6,0.5-11.2,0-11.2,0L338.4,443.7z"/>
	<path class="st5" d="M248.5,439.8c0,0,3.1,5,7.8,7.8c4.7,2.9,12.5,4.7,12,7.3c-0.5,2.6-6,4.7-11.5,3.9c-5.5-0.8-18.5-4.4-21.6-5.7
		c-3.1-1.3-5-1.6-5-3.6s5.7-16.7,5.7-16.7L248.5,439.8z"/>
	<path class="st5" d="M278.4,208c0,0-9.6,10.9-13.3,18c-3.7,7.1-18.7,30.4-16.6,33.9c2.1,3.5,12.9,14.7,18.4,18.5
		c5.5,3.8,10.3,7.8,10.3,7.8l4.2-3.1c0,0-7.6-10.7-12-17.9c-4.5-7.3-7.1-11-7.1-11s12.2-15,15.3-18.9c3.1-3.9,4.2-21,4.3-22.5
		C282,211.1,280.9,206,278.4,208z"/>
	<g>
		<path class="st5" d="M311.9,155.1c0,0,3.4,3.7,3.7,7.6c0.3,3.9-0.7,7.6,1.7,9.3c2.5,1.6,5.4,2,3.9,3.1c-1.5,1.2-4.2,3.2-4.2,3.2
			s-1.2,11.9-2.5,12.5c-1.3,0.6-11.6,1.9-11.6,1.9s-3.7,6.3-2.9,9.9s7.2,15.4,11.1,22.7s4.1,10.1,2.6,17.3
			c-1.6,7.2-6.5,37.7-6.2,42.7c0.3,5,3.9,12.3,3.9,12.3s20.9,57.3,23.2,63.9c2.3,6.5,1.6,21.9,3.1,27.6c1.6,5.7,11.7,25.8,13.3,29.5
			s7.5,11.6,7.5,11.6l1.3,2.6c0,0-3.6,3.1-7.8,6.3c-4.2,3.1-9.1,5.2-10.9,5.7c-1.8,0.5-4.2,1.3-4.2,1.3s-8-14.2-11.1-21.7
			c-3.1-7.6-8.3-15.9-9.4-26.8c-1-10.9-4.4-20.9-7.3-29.5c-2.9-8.6-12.3-23.7-12.3-23.7s-7.6,30.2-13.6,37.5
			c-6,7.3-14.6,26.8-20.1,36.8c-5.5,9.9-8.1,12.3-8.6,16.9c-0.5,4.7-1.8,8.1-1.8,8.1s-9.1-1.8-13.8-5c-4.7-3.1-8.6-7.3-8.6-7.3
			s13-27.9,19.3-40.1c6.3-12.3,13.8-39.4,14.1-41.2c0.3-1.8,2.9-17.2,3.9-20.6c1-3.4,1.3-3.6,1-5.5c-0.3-1.8-7.3-12.8-4.4-23.5
			c2.9-10.7,10.6-21.2,10.6-21.2s4.6-16,4.5-20.2c0-4.2-4.4-13.8-5.6-23.1c-1.2-9.3-0.6-22.7,3.6-29.3c4.2-6.6,11-17,11.4-19.4
			c0.3-2.4,1.7-5.6-1.5-13.7s4.4-15.2,9.6-18.2C302,152.2,311.9,155.1,311.9,155.1z"/>
		<ellipse class="st10" cx="312.6" cy="170.2" rx="0.9" ry="2.2"/>
		<path class="st12" d="M310.3,166.5c0,0,1.8-2.1,3.5-0.3"/>
		<path class="st12" d="M316.2,182.2c0,0-2.7,0.6-4.4-2.4"/>
	</g>
	<g>
		<line class="st12" x1="305.3" y1="310.5" x2="297.5" y2="341"/>
		<path class="st12" d="M324.6,381.4c0,0-1.6,21.4-2.6,28.7"/>
		<path class="st12" d="M327.7,393.6c0,0-2.3,16.9-2.3,18.5"/>
	</g>
	<path class="st7" d="M297.7,172.6c0,0-4.4-6.5-7.7-1.8c-3.3,4.7-0.3,9.4,1.5,10.1c1.9,0.6,2.9,0,2.9,0s-1.5,4.8-4.8,9.2
		c-3.3,4.4-12.2,8.7-19.3,7.4c-7.2-1.3-20.6-14.2-18.1-25.1c2.6-10.9,5.3-16.3,8.4-16.6c3.1-0.2,5,3.8,8.6,3.5
		c3.6-0.3,8.1-14.5,20.9-17.2c12.9-2.8,23.8,3.5,25.1,7.8c1.4,4.3-0.5,6.8-1.8,6.9c-1.3,0.1-6.5-2.7-9.5-0.6c-3,2.1-1,4.3-0.6,6.1
		c0.4,1.8-2.6,3.3-2.5,5.2c0.1,1.8,0.5,3.9-0.5,4C299.5,171.7,297.7,172.6,297.7,172.6z"/>
	<path class="st13" d="M311,225.2c-1-1.9-2.2-4-3.4-6.3c-0.4,0.2-0.8,0.3-1.2,0.4c-3.4,0.2-11-10.9-18.6-15.3
		c-3.6-2.1-6.5-1.6-8.5-0.6c-0.4,0.6-0.7,1.1-1,1.6c2.4-1,5.8-1.5,9.6,0.8c7.4,4.4,13.3,13.7,14.8,20.1c1.5,6.4-5.8,16.9-15.6,19.4
		c-6.2,1.6-10.2-0.8-12.8-5.5c1.7,8,4.9,15.6,4.9,19.2c0,4.2-4.5,20.2-4.5,20.2s-0.4,0.7-1,1.9c12.3,3.6,27.9,5.4,33.9,4.2
		c0.7-9.3,4.7-36.5,6-42.7C315.2,235.4,315,232.5,311,225.2z"/>
	<path class="st5" d="M284.6,206.8c0,0,7.1,0.3,10.6,5.7c3.5,5.5,19.6,28.6,21.9,30.8c2.3,2.2,5.4,6.1,5.4,6.1s25.1-14.7,29.5-18.1
		c4.4-3.5,8.7-9.5,8.7-9.5s0.5-4.2,0.6-5.5c0.2-1.3,4.1-1.6,4.1-1.6s2.6-3.3,4.7-3.2s2.6,3.2,2.6,3.2s2.7,4.8,2.9,7.1
		s-4.7,7.4-6.7,8.3c-2,0.9-5.9,1.7-5.9,1.7s-16.1,18.7-21.5,24.3c-5.3,5.6-14,11.5-16.1,12.4s-10.2-3.2-11.5-3.9
		c-1.4-0.7-35.6-32.9-35.6-32.9"/>
	<g>
		<path class="st5" d="M230,217.9c0,0,8.8,13.9,12.8,19.9c4,6,10.8,13.1,10.8,13.1s7.1-6.2,12.8-11.9c5.7-5.7,8.5-15.3,8.5-15.3
			s-3.4-6-3.4-7.1c0-1.1,3.1-4.5,4-5.4c0.9-0.9,2.3-0.6,2.3-0.6s0.9-1.1,3.1-1.1c2.3,0,7.7,5.4,8.2,9.4c0.6,4-3.4,8.2-5.1,10.8
			c-1.7,2.6-9.4,16.7-12.5,23.6c-3.1,6.8-13.6,18.4-17,19s-19.9-13.3-21.9-15.9c-2-2.6,0-23.3-1.4-26.7
			C229.7,226.1,230,217.9,230,217.9z"/>
		<path class="st12" d="M277.7,210.5c0,0,7.1,5.4,4.3,6.5c-2.8,1.1-4-1.7-4-1.7s2.8,3.4,1.7,6.2"/>
		<path class="st12" d="M280.3,217.6c0,0,4,4,6,4.3"/>
	</g>
	<g>
		<path class="st5" d="M191.1,319.2c0,0-9.4,36-12.5,40c-3.1,4-18.2,17.3-21,25c-2.8,7.7-16.6,38-18.3,42.8
			c-1.7,4.8-3.1,6.2-3.1,6.2l11.9,6.5c0,0,12.6-23.3,19.4-31.8c6.8-8.5,15.6-21.9,21.9-28.1c6.2-6.2,24.7-32.1,24.7-32.1
			L191.1,319.2z"/>
		<path class="st7" d="M214.1,347.9l-23-28.7c0,0-8.3,31.9-11.9,39c3.4,4.1,9.2,9.1,18.5,11.7C205.3,360.2,214.1,347.9,214.1,347.9z
			"/>
		<path class="st5" d="M148.2,439.8c0,0,2.9-5.1,6.4-12c-5.1-1.4-10.4-4.2-13.2-6.1c-1,2.9-1.6,4.2-2,5.3c-1.7,4.8-3.1,6.2-3.1,6.2
			L148.2,439.8z"/>
		<g>
			<path class="st5" d="M153.3,444.4c0,0-1.1-0.6-1.4-5.1c-0.3-4.5-0.9-7.7-2.6-4.8c-1.7,2.8-1.7,2.8-1.7,2.8l-11.1-6.5
				c0,0-2,1.7-2,3.4s-7.9,9.4-6.2,11.6c1.7,2.3,7.7,2.3,13.6,6.2c6,4,7.1,6,14.5,6.2c7.4,0.3,8.8-2.3,8.8-3.7s-6-3.7-7.9-5.7
				C155.3,446.9,153.3,444.4,153.3,444.4z"/>
			<path class="st5" d="M165.2,454.6c0-0.4-0.4-0.8-1-1.2c-1.4,0.9-4.7,2.3-10.7,1.5c-8.8-1.1-8.8-3.7-13.6-7.9
				c-3.2-2.9-8-4.2-10.8-4.7c-0.9,1.5-1.4,2.9-0.8,3.6c1.7,2.3,7.7,2.3,13.6,6.2c6,4,7.1,6,14.5,6.2
				C163.8,458.6,165.2,456,165.2,454.6z"/>
		</g>
	</g>
	<path class="st5" d="M187.7,298.5c0,0-3.1,10.2,2.6,24.7c5.7,14.5,28.9,39.7,36.3,46s7.4,6.2,7.4,6.2s1.1,17,9.4,28.7
		c8.2,11.6,28.1,39.7,28.1,39.7l9.4-7.1c0,0-7.7-9.1-9.9-17.9c-2.3-8.8-14.5-35.2-16.5-44c-2-8.8-9.4-24.1-10.2-25.5
		C243.4,347.9,228,319,228,319l2.3-13.9L187.7,298.5z"/>
	<path class="st7" d="M225.6,368.3c2.2-3,8.6-9.8,22.2-11.5c-1.7-3.9-3.2-6.9-3.6-7.5C243.4,347.9,228,319,228,319l2.3-13.9
		l-42.6-6.5c0,0-3.1,10.2,2.6,24.7C195.7,337.1,217.3,360.8,225.6,368.3z"/>
	<path class="st5" d="M262.6,431.2c5,7.1,8.9,12.6,8.9,12.6l9.4-7.1c0,0-4.7-5.6-7.8-12.2C270.7,426.7,267.1,429.3,262.6,431.2z"/>
	<g>
		<path class="st5" d="M280.3,428.8c0,0-4.3-4-3.7,1.1c0.6,5.1,2.3,6.8,2.3,6.8s-11.6,5.4-10.5,7.9s2.6,4.3,2.6,4.3
			s7.1,11.1,10.2,9.9c3.1-1.1,8.5-8.2,13.3-10.5c4.8-2.3,10.8-9.9,12.2-14.5c1.4-4.5,0.6-6.2-2.8-4.3c-3.4,2-7.9,4.5-13.1,4.5
			c-5.1,0-8.8-2.8-8.8-2.8L280.3,428.8z"/>
		<path class="st5" d="M305.9,428.8c0,0.1,0,0.2-0.1,0.2c-1.7,7.7-11.4,13.1-15.9,17.3c-3.7,3.5-10.9,8.3-13.3,9.9
			c1.7,1.7,3.4,3,4.5,2.6c3.1-1.1,8.5-8.2,13.3-10.5c4.8-2.3,10.8-9.9,12.2-14.5C307.7,430.5,307.5,428.7,305.9,428.8z"/>
	</g>
	<g>
		<path class="st5" d="M239.6,150.8c0,0,2.4,4.2,3.1,9.2c0.7,5,0.4,7.9,2.4,10.3c2,2.4,3.7,3.9,3.3,5.3c-0.4,1.3-3.5,2.8-3.5,2.8
			s-2.6,10.7-5,12.5c-2.4,1.8-10.5-0.4-10.5-0.4s-3.1,4.2-2.8,10.1c0.2,5.9,5,15.1,7.9,23.7c2.8,8.5,3.3,15.8,0.4,27.2
			c-2.8,11.4-3.9,35.9-3.7,42.5c0.2,6.6,0.2,10.1,0.2,10.1s3.3,3.7-11.8,3.7c-15.1,0-29.3-5.7-30.9-6.4c-1.5-0.7-2-1.8-2-1.8
			s3.5-38.3,2.4-41.4c-1.1-3.1-2.2-17.1-2.2-17.1s0.4-23.9,7.2-32.9c6.8-9,14.7-12.9,17.5-17.5c2.8-4.6,1.8-9.9,1.8-9.9
			s-7.4-5.5-11-16c-3.5-10.5,6.4-21.9,13.6-24.5c7.2-2.6,22.1,0.9,24.3,3.5C242.4,146.4,239.6,150.8,239.6,150.8z"/>
		<path class="st7" d="M240.2,143.8c-2.2-2.6-17.1-6.1-24.3-3.5c-7.2,2.6-17.1,14-13.6,24.5c3.5,10.5,11,16,11,16s0.1,0.3,0.1,0.8
			c1.6-0.3,5.4-2.2,5.4-2.2s-1.8-1.3-2.4-2.2c-0.7-0.9-2.4-7,1.1-8.1c3.5-1.1,4.4,1.3,5,2.6c0.7,1.3,2.4,0,3.1-0.7
			c0.7-0.7,0.2-5.7,0.2-5.7s2.6-2,4.6-4.2c2-2.2-5.5-7.2-5.5-7.2s5.5-0.2,8.3-0.7c2.8-0.4,6.4-2.6,6.4-2.6S242.4,146.4,240.2,143.8z
			"/>
		<polygon class="st7" points="229.3,190.4 223.8,187.8 227.5,193.7 		"/>
		<path class="st10" d="M241.8,168.9c0.1,1.2-0.2,2.2-0.6,2.2s-0.8-0.9-0.9-2.1c-0.1-1.2,0.2-2.2,0.6-2.2
			C241.2,166.8,241.7,167.7,241.8,168.9z"/>
		<path class="st12" d="M238.3,164.8c0,0,1.5-2.4,3.1-1.1"/>
		<path class="st12" d="M242.4,181.5c0,0-3.3-1.3-3.3-2.2"/>
		<path class="st13" d="M231.2,303.9c0,0,0-3.5-0.2-10.1c-0.2-6.6,0.9-31.1,3.7-42.5c2.8-11.4,2.4-18.6-0.4-27.2
			c-0.9-2.8-2.1-5.7-3.2-8.5c-5.1,1.1-10.9-6.7-14.4-12.5c-4.3-7.1-11.6-6-11.6-6l-0.1-0.1c-0.7,0.6-1.5,1.2-2.3,1.9
			c3.3,0.9,9,3.3,12,10.3c4.3,10.2-2.8,23-11.4,27c-6.2,2.9-13,0.2-16.2-1.4c-0.3,3.6-0.3,6.1-0.3,6.1s1.1,14,2.2,17.1
			c1.1,3.1-2.4,41.4-2.4,41.4s0.4,1.1,2,1.8c1.5,0.7,15.8,6.4,30.9,6.4C234.5,307.6,231.2,303.9,231.2,303.9z"/>
	</g>
	<path class="st5" d="M206.2,201.7c0,0-11.4-0.6-16.2,5.4c-4.8,6-28.1,41.7-29.2,44.6c-1.1,2.8,1.7,7.1,1.7,7.1s35.5,31.8,36.6,32.1
		c1.1,0.3,7.7,7.9,9.6,8.5c2,0.6,8.5-1.1,9.4-2s4.8-4.5,3.1-6c-1.7-1.4-2.8-2.3-2.8-3.1c0-0.9,0.9-4-2.3-4.5
		c-3.1-0.6-12.8-0.6-12.8-0.6s-4.8-5.7-11.1-14.5c-6.2-8.8-9.9-15.6-9.9-15.6l26.1-25.3"/>
</g>
</svg>
