<?xml version="1.0" encoding="utf-8"?>
<!-- Generator: Adobe Illustrator 26.0.0, SVG Export Plug-In . SVG Version: 6.00 Build 0)  -->
<svg version="1.1" id="Logo_1_" xmlns="http://www.w3.org/2000/svg" xmlns:xlink="http://www.w3.org/1999/xlink" x="0px" y="0px"
	 viewBox="0 0 721.44 226.39" style="enable-background:new 0 0 721.44 226.39;" xml:space="preserve">
<style type="text/css">
	.st0{fill:#1390CF;}
	.st1{fill:#33C0DD;}
	.st2{fill:#0099D6;}
	.st3{fill:#96D8ED;}
	.st4{fill:#1BA0DA;}
	.st5{fill:#1190CF;}
	.st6{fill:#056DB5;}
	.st7{fill:#1C3A69;}
	.st8{fill:#005893;}
	.st9{fill:#005D9D;}
	.st10{fill:#134F7E;}
	.st11{fill:#1D4D82;}
	.st12{fill:#4DA2D3;}
	.st13{fill:#2D68B1;}
	.st14{fill:#50A2D2;}
	.st15{fill:#6AACD1;}
	.st16{fill:#72CDE6;}
	.st17{fill:#42467F;}
	.st18{fill:#98CBE6;}
	.st19{fill:#54A4D3;}
	.st20{fill:#0062A7;}
	.st21{fill:#5CABD8;}
	.st22{fill:#1278B9;}
	.st23{fill:#53A5D4;}
	.st24{fill:#0678BD;}
	.st25{fill:#1279BB;}
	.st26{fill:#4BA1D3;}
	.st27{fill:#92C7E6;}
	.st28{fill:#21C1E4;}
	.st29{fill:#92C6E4;}
	.st30{fill:#4BA2D3;}
	.st31{fill:#94D7EC;}
	.st32{fill:#2763A1;}
	.st33{fill:#38C3E3;}
	.st34{fill:#0086FF;}
</style>
<g id="BL_2021">
	<g>
		<g id="Группа_1_2_">
			<g id="Фигура_117_1_">
				<g>
					<path class="st0" d="M101.31,83.09h11.32l0,0c0.81,0.01,1.58,0.11,2.33,0.3l0.63-17.45L101.31,83.09z"/>
				</g>
			</g>
			<g id="Фигура_42_1_">
				<g>
					<path class="st1" d="M121.46,69.47l-5.87-3.52l-0.07,0.69l-0.53,16.77c0.26,0.07,0.51,0.14,0.76,0.22l2.05-1.92l3.66-7.35
						l0.76-3.06L121.46,69.47z"/>
				</g>
			</g>
			<g id="Фигура_41_1_">
				<g>
					<path class="st2" d="M124.7,65.75c-1.02,0-2.02,0.06-3,0.2v3.79c0,0-0.01-0.01-0.04-0.03l0.48,0.68l4.73,0.61l6.18,0.07
						l5.78-0.23C134.99,67.66,130.07,65.75,124.7,65.75z"/>
				</g>
			</g>
			<g id="Фигура_40_1_">
				<g>
					<path class="st3" d="M138.63,70.77l-16.94-0.92l-6.71,13.39v0.16c0.33,0.08,0.67,0.19,0.98,0.3l8.18-1.91l8.62-5.51l7.56-4.21
						L138.63,70.77z"/>
				</g>
			</g>
			<g id="Фигура_39_1_">
				<g>
					<path class="st4" d="M138.98,70.97c-0.1-0.08-0.2-0.17-0.31-0.26L114.95,83.4c4.47,1.12,7.79,5.16,7.82,9.98l0.52,0.05
						l6.95-4.59l6.79-8.96l2.29-7.96L138.98,70.97z"/>
				</g>
			</g>
			<g id="Фигура_38_1_">
				<g>
					<path class="st5" d="M138.69,70.74l-15.86,22.84l11.45,2.29l9.61-3.98l2.81-0.96c0.13-0.96,0.19-1.93,0.19-2.93
						C146.89,81.04,143.69,74.82,138.69,70.74z"/>
				</g>
			</g>
			<g id="Фигура_37_1_">
				<g>
					<path class="st6" d="M146.89,87.75l-23.98,5.68l-0.14,0.18c-0.01,0.53-0.05,1.06-0.14,1.57l1.51,4.52l6.26,8.11l3.1,0.63
						c7.88-3.41,13.4-11.28,13.4-20.45C146.89,87.92,146.89,87.84,146.89,87.75z"/>
				</g>
			</g>
			<g id="Фигура_36_1_">
				<g>
					<path class="st7" d="M121.71,98c-1.57,3.22-4.76,5.49-8.49,5.76v0.03h-12.93l14.47,16.41l0.07,0.06
						c0.21-0.03,0.44-0.05,0.66-0.06l1.18-1.22l4.43-11.71l1.22-6.74L121.71,98z"/>
				</g>
			</g>
			<g id="Фигура_35_1_">
				<g>
					<path class="st8" d="M122.76,93.24c0,0.07,0,0.13,0,0.2c0,2.26-0.72,4.34-1.93,6.04l-6.05,20.8c0.49-0.06,0.98-0.08,1.48-0.08
						c1.13,0,2.22,0.15,3.26,0.44l1.93-0.02l6.26-5.28l4.12-3.9l2.14-2.83L122.76,93.24z"/>
				</g>
			</g>
			<g id="Фигура_34_1_">
				<g>
					<path class="st6" d="M136.83,112.08l-1.71-3.23c-0.34-0.1-0.69-0.2-1.04-0.29l-19.11,11.7c0.42-0.05,0.85-0.06,1.29-0.06
						c6.86,0,12.43,5.59,12.43,12.47c0,0.36-0.02,0.72-0.05,1.07l5.28-2.97l3.51-6.36L136.83,112.08z"/>
				</g>
			</g>
			<g id="Фигура_33_1_">
				<g>
					<path class="st9" d="M134.02,108.54l-5.33,23.94c0,0.06,0,0.13,0,0.19c0,0.38-0.02,0.76-0.06,1.14l8.68,2.96l16.67,0.22
						c0.05-0.64,0.07-1.28,0.07-1.93C154.06,122.41,145.58,111.77,134.02,108.54z"/>
				</g>
			</g>
			<g id="Фигура_32_1_">
				<g>
					<path class="st7" d="M153.98,132.92l-25.29-0.3c0,0.01,0,0.03,0,0.04c0,1.43-0.24,2.81-0.68,4.09l0.61,4.98l2.75,7.04l5.8,8.42
						l3.32,1.6c8.12-4.77,13.58-13.62,13.58-23.75C154.06,134.33,154.04,133.62,153.98,132.92z"/>
				</g>
			</g>
			<g id="Фигура_31_1_">
				<g>
					<path class="st10" d="M128.7,132.63c0,0.01,0,0.03,0,0.04c0,6.89-5.57,12.47-12.43,12.47c-0.1,0-0.2,0-0.3,0l0,0h-1.46
						l0.55,6.4l16.1,6.2l6.97,2.3c1.04-0.48,2.05-1.03,3.01-1.64L128.7,132.63z"/>
				</g>
			</g>
			<g id="Фигура_30_копия_1_">
				<g>
					<path class="st7" d="M115.69,145.12v0.02h-0.32h-1.49l-2.72,12.67l-1.11,4.74h16.75l0,0c5.27-0.03,10.19-1.55,14.36-4.16
						L115.69,145.12z"/>
				</g>
			</g>
			<g id="Фигура_29_1_">
				<g>
					<polygon class="st10" points="115.67,145.13 98.99,145.13 98.67,145.33 100.47,150.6 106.88,160.69 109.93,162.55 
						113.37,162.55 113.36,162.5 					"/>
				</g>
			</g>
			<g id="Фигура_28_1_">
				<g>
					<path class="st6" d="M99.02,145.1v0.03l-1.07,0.71c-0.09,0.16-0.15,0.26-0.15,0.26l-3.2,7.19l-0.75,1.58v7.69h19.53
						L99.02,145.1z"/>
				</g>
			</g>
			<g id="Фигура_27_1_">
				<g>
					<polygon class="st11" points="93.85,148.59 93.85,162.28 99.02,145.15 					"/>
				</g>
			</g>
			<g id="Фигура_8_1_">
				<g>
					<polygon class="st12" points="68.47,65.69 59.14,75.05 74.08,75.42 					"/>
				</g>
			</g>
			<g id="Фигура_9_1_">
				<g>
					<polygon class="st13" points="78.55,65.69 75.57,74.3 87.51,73.18 					"/>
				</g>
			</g>
			<g id="Фигура_8_копия_1_">
				<g>
					<polygon class="st14" points="58.77,154.4 66.94,162.68 71.83,154.07 					"/>
				</g>
			</g>
			<g id="Фигура_13_1_">
				<g>
					<polygon class="st15" points="109.17,55.31 109.17,64.19 116.38,55.31 					"/>
				</g>
			</g>
			<g id="Фигура_13_копия_1_">
				<g>
					<polygon class="st16" points="80.12,56.27 91.65,62.93 91.91,56.77 					"/>
				</g>
			</g>
			<g id="Фигура_23_1_">
				<g>
					<polygon class="st17" points="111.03,163.81 110.66,172.42 118.87,172.42 					"/>
				</g>
			</g>
			<g id="Фигура_24_1_">
				<g>
					<polygon class="st7" points="115.51,166.05 123.35,174.67 123.35,166.05 					"/>
				</g>
			</g>
			<g id="Фигура_26_1_">
				<g>
					<polygon class="st18" points="79.46,164.52 78.94,172.38 89.75,172.95 					"/>
				</g>
			</g>
			<g id="Фигура_44_1_">
				<g>
					<polygon class="st6" points="77.8,136.66 79.37,151.97 92.62,141.9 					"/>
				</g>
			</g>
			<g id="Фигура_45_1_">
				<g>
					<polygon class="st19" points="69.42,146.17 73.99,154.67 75.83,146.32 					"/>
				</g>
			</g>
			<g id="Фигура_46_1_">
				<g>
					<polygon class="st20" points="100.16,129.56 89.4,134.46 100.47,139.59 					"/>
				</g>
			</g>
			<g id="Фигура_47_1_">
				<g>
					<polygon class="st21" points="83.23,128.33 79.71,134 89.71,132.32 					"/>
				</g>
			</g>
			<g id="Фигура_48_1_">
				<g>
					<polygon class="st22" points="70.63,123.97 70.79,130.93 76.13,130.93 					"/>
				</g>
			</g>
			<g id="Фигура_49_1_">
				<g>
					<polygon class="st23" points="99.55,119.84 96.42,128.8 104.29,124.28 					"/>
				</g>
			</g>
			<g id="Фигура_50_1_">
				<g>
					<polygon class="st24" points="84.45,110.73 88.95,126.42 98.11,118 					"/>
				</g>
			</g>
			<g id="Фигура_51_1_">
				<g>
					<polygon class="st18" points="72.77,119.69 77.88,122.75 81.39,116.7 					"/>
				</g>
			</g>
			<g id="Фигура_52_1_">
				<g>
					<polygon class="st25" points="100.78,108.35 100.92,115.86 107.56,116.08 					"/>
				</g>
			</g>
			<g id="Фигура_53_1_">
				<g>
					<polygon class="st19" points="79.86,104.68 77.43,110.42 81.93,109.2 					"/>
				</g>
			</g>
			<g id="Фигура_54_1_">
				<g>
					<polygon class="st26" points="98.11,104.68 84.9,101.7 98.26,113.56 					"/>
				</g>
			</g>
			<g id="Фигура_55_1_">
				<g>
					<polygon class="st12" points="68.19,101.54 70.63,105.53 73.92,103.61 					"/>
				</g>
			</g>
			<g id="Фигура_56_1_">
				<g>
					<polygon class="st27" points="75.97,93.43 76.51,103.45 80.78,100.47 					"/>
				</g>
			</g>
			<g id="Фигура_57_1_">
				<g>
					<polygon class="st28" points="81.77,93.89 98.56,101.54 101.77,86.77 					"/>
				</g>
			</g>
			<g id="Фигура_58_1_">
				<g>
					<polygon class="st29" points="70.1,92.43 72.01,94.11 72.08,89.22 					"/>
				</g>
			</g>
			<g id="Фигура_59_1_">
				<g>
					<polygon class="st30" points="73.61,79.58 71.4,82.18 75.59,84.62 					"/>
				</g>
			</g>
			<g id="Фигура_60_1_">
				<g>
					<polygon class="st31" points="80.56,75.21 84.36,88.91 92.61,80.11 					"/>
				</g>
			</g>
			<g id="Фигура_61_1_">
				<g>
					<polygon class="st6" points="92,150.07 78.34,160.1 92.08,171.35 					"/>
				</g>
			</g>
			<g id="Фигура_61_копия_1_">
				<g>
					<polygon class="st32" points="74.69,162.2 70.56,165.23 78.42,165.23 					"/>
				</g>
			</g>
			<g id="Фигура_62_1_">
				<g>
					<polygon class="st33" points="74.75,55.46 75.14,62.51 91.24,65.03 					"/>
				</g>
			</g>
			<g id="Фигура_63_1_">
				<g>
					<polygon class="st13" points="113.29,63.19 120.31,67.33 120.31,55.16 					"/>
				</g>
			</g>
			<g id="Фигура_67_1_">
				<g>
					<path class="st15" d="M110.52,65.63l-17.79-0.21h-0.05h0.01l3.78,2.59l-0.08-0.02l0.12,0.09l-0.34,0.58
						c0,0-0.22,0.19-0.51,0.14l0.79,3.58l6.57,1.53l0.57-0.11l1.12-1.3l5.86-6.86h0.01L110.52,65.63z"/>
				</g>
			</g>
			<g id="Фигура_66_1_">
				<g>
					<polygon class="st16" points="96.42,67.94 94.37,70.16 94.26,74.84 98.8,78.49 99.04,78.87 99.15,78.94 104.7,72.49 					"/>
				</g>
			</g>
			<g id="Фигура_65_1_">
				<g>
					<path class="st33" d="M96.44,68L81.1,65.5l17.98,13.39L96.44,68z M96.42,67.94l-0.12-0.03L96.44,68L96.42,67.94z"/>
				</g>
			</g>
		</g>
		<g id="Прямоугольник_1_копия_2_2_">
			<g>
				<g id="Прямоугольник_1_копия_2_11_">
					<g>
						<path class="st34" d="M21.72,25.88V200.5h173.93V25.88H21.72z M183.24,188.05H34.13V38.33h149.11V188.05z"/>
					</g>
				</g>
			</g>
		</g>
	</g>
	<g>
		<g id="Blockchain_2_">
			<g>
				<g id="Blockchain_11_">
					<g>
						<path class="st34" d="M261.75,61.32c6.08-2.07,10.4-6.99,10.4-15.06c0-11.81-9.13-17.43-23.74-17.43h-30.02v68.91h29.53
							c11.97,0,26.98-3.64,26.98-19.3C274.88,68.31,268.51,63.29,261.75,61.32z M233.1,40.95h14.03c6.47,0,10.39,2.46,10.39,7.87
							c0,5.32-4.02,7.87-9.62,7.87h-14.81L233.1,40.95L233.1,40.95z M247.71,85.74H233V68.02h15.5c5.89,0,11.67,1.58,11.67,8.86
							C260.17,84.36,254.29,85.74,247.71,85.74z M283.81,97.75h13.64V25.89h-13.64V97.75z M332.56,49.12
							c-13.63,0-25.99,8.46-25.99,25.01c0,16.54,12.36,25.01,25.99,25.01c13.73,0,25.99-8.46,25.99-25.01
							C358.55,57.58,346.29,49.12,332.56,49.12z M332.56,86.92c-7.75,0-12.06-5.52-12.06-12.8c0-7.29,4.32-12.8,12.06-12.8
							c7.85,0,12.16,5.52,12.16,12.8C344.72,81.41,340.41,86.92,332.56,86.92z M378.77,74.12c0-9.55,7.16-13.19,14.61-13.19
							c4.51,0,9.22,1.38,12.55,3.55V52.47c-4.22-2.26-9.32-3.45-14.51-3.45c-13.05,0-26.58,7.68-26.58,25.79
							c0,16.84,12.85,24.32,25.7,24.32c5.98,0,11.28-1.18,15.89-3.15V83.87c-3.44,2.07-8.24,3.45-13.25,3.45
							C385.82,87.32,378.77,83.18,378.77,74.12z M462.14,50.5h-15.31l-11.97,17.62h-5.69V28.84h-13.63v68.91h13.63V79.04h5.5
							l13.54,18.71h15.31l-17.56-23.92L462.14,50.5z M478.23,74.12c0-9.55,7.16-13.19,14.61-13.19c4.51,0,9.22,1.38,12.55,3.55
							V52.47c-4.22-2.26-9.32-3.45-14.52-3.45c-13.05,0-26.58,7.68-26.58,25.79c0,16.84,12.85,24.32,25.7,24.32
							c5.98,0,11.28-1.18,15.89-3.15V83.87c-3.43,2.07-8.24,3.45-13.24,3.45C485.29,87.32,478.23,83.18,478.23,74.12z M542.77,49.12
							c-5.89,0-10.69,2.46-14.12,5.71V28.84h-13.64v68.91h13.64V66.94c1.96-2.85,5.69-6,10.49-6c5.3,0,9.13,2.96,9.13,9.35v27.47
							h13.64V68.51C561.9,57.58,555.13,49.12,542.77,49.12z M614.97,85.54V70.48c0-15.55-9.03-21.36-23.15-21.36
							c-7.26,0-14.42,1.87-18.24,3.15v11.81c4.41-1.77,10.2-3.55,16.67-3.55c7.36,0,11.09,3.25,11.09,7.97v1.67
							c-3.34-0.78-7.46-1.28-11.18-1.28c-9.42,0-20.69,3.74-20.69,15.75c0,9.35,7.65,14.47,16.48,14.47
							c6.97,0,12.36-2.16,16.97-5.81c1.96,3.55,5.59,5.32,10.4,5.32c2.65,0,5.4-0.59,7.55-1.38v-8.96
							c-0.88,0.29-1.77,0.39-2.55,0.39C616.54,88.69,614.97,88,614.97,85.54z M601.33,85.54c-3.14,2.75-6.76,3.84-10.59,3.84
							c-4.12,0-7.36-2.26-7.36-5.81c0-4.82,4.9-6.5,9.91-6.5c2.84,0,5.98,0.59,8.04,1.09L601.33,85.54L601.33,85.54z M627.43,97.75
							h13.64V50.5h-13.64V97.75z M634.2,27.17c-4.22,0-7.95,2.36-7.95,7.68c0,5.42,3.73,7.78,7.95,7.78c4.31,0,8.04-2.36,8.04-7.78
							C642.24,29.53,638.51,27.17,634.2,27.17z M680.59,49.12c-6.76,0-12.07,3.15-15.7,7.39v-6h-12.06v47.25h13.63V66.94
							c1.96-2.85,5.69-6,10.5-6c5.3,0,9.13,2.96,9.13,9.35v27.47h13.63V68.52C699.72,57.58,692.95,49.12,680.59,49.12z"/>
					</g>
				</g>
			</g>
		</g>
		<g id="Life_2_">
			<g>
				<g id="Life_11_">
					<g>
						<path class="st34" d="M233.1,130.22h-14.71v68.91h48.36v-13.29H233.1V130.22z M280.67,128.54c-4.22,0-7.95,2.36-7.95,7.68
							c0,5.41,3.73,7.78,7.95,7.78c4.32,0,8.04-2.36,8.04-7.78C288.71,130.9,284.99,128.54,280.67,128.54z M273.91,199.12h13.63
							v-47.25h-13.63V199.12z M303.92,147.24v4.62h-8.14v11.52h8.14v35.73h13.54v-35.73h14.42v-11.52h-14.42v-4.04
							c0-5.9,4.02-7.48,8.44-7.48c3.04,0,6.08,0.78,8.14,1.97V130.8c-3.04-1.18-7.26-1.97-11.58-1.97
							C313.54,128.84,303.92,132.97,303.92,147.24z M359.34,150.49c-10.59,0-24.23,7.19-24.23,25c0,16.44,12.36,25.01,27.27,25.01
							c7.07,0,12.84-1.09,17.26-2.96v-10.73c-4.02,1.77-8.82,2.85-14.22,2.85c-7.75,0-15.01-2.85-16.57-9.74h33.16
							C385.14,165.95,378.87,150.49,359.34,150.49z M369.74,171.07h-21c0.2-6.5,5.3-10.14,11.09-10.14
							C368.37,160.93,370.24,167.82,369.74,171.07z"/>
					</g>
				</g>
			</g>
		</g>
	</g>
</g>
<g>
	<path d="M413.56,136.94c5.94-4.16,12.77-6.24,20.49-6.24c6.47,0,11.71,1.52,15.74,4.55c4.03,3.04,6.04,7.13,6.04,12.28
		c0,2.24-0.4,4.36-1.19,6.34s-1.72,3.68-2.77,5.1c-1.06,1.42-2.56,2.92-4.5,4.5c-1.95,1.58-3.66,2.84-5.15,3.76
		c-1.48,0.92-3.45,2.11-5.89,3.56c-6.73,3.9-11.19,6.8-13.36,8.71c-4.95,4.42-7.49,9.7-7.62,15.84h41.28v3.76h-45.54v-2.18
		c0-3.03,0.45-5.86,1.34-8.46c0.89-2.61,1.93-4.77,3.12-6.48c1.19-1.72,2.87-3.48,5.05-5.3c2.18-1.81,4.06-3.22,5.64-4.21
		c1.58-0.99,3.7-2.24,6.34-3.76c0.2-0.13,0.36-0.23,0.49-0.3c0.13-0.06,0.28-0.15,0.45-0.25c0.16-0.1,0.31-0.18,0.45-0.25
		c2.64-1.58,4.49-2.71,5.54-3.37c1.06-0.66,2.59-1.75,4.6-3.27c2.01-1.52,3.43-2.84,4.26-3.96c0.82-1.12,1.62-2.56,2.38-4.31
		c0.76-1.75,1.14-3.61,1.14-5.59c0-4.02-1.65-7.21-4.95-9.55c-3.3-2.34-7.69-3.51-13.17-3.51c-7,0-13.73,2.15-20.2,6.44V136.94z"/>
	<path d="M475.13,190.7c-4.95-6.34-7.42-14.75-7.42-25.25c0-10.49,2.48-18.91,7.42-25.24c4.95-6.34,12.18-9.5,21.68-9.5
		c9.57,0,16.81,3.15,21.73,9.45c4.92,6.3,7.38,14.74,7.38,25.29c0,10.56-2.46,18.99-7.38,25.29c-4.92,6.3-12.16,9.45-21.73,9.45
		C487.31,200.2,480.08,197.03,475.13,190.7z M515.63,188.17c4.22-5.51,6.34-13.08,6.34-22.72c0-9.64-2.11-17.21-6.34-22.72
		c-4.22-5.51-10.49-8.27-18.81-8.27s-14.59,2.76-18.81,8.27c-4.22,5.51-6.34,13.08-6.34,22.72c0,9.64,2.11,17.21,6.34,22.72
		c4.22,5.51,10.49,8.27,18.81,8.27S511.4,193.68,515.63,188.17z"/>
	<path d="M538.69,136.94c5.94-4.16,12.77-6.24,20.49-6.24c6.47,0,11.71,1.52,15.74,4.55c4.03,3.04,6.04,7.13,6.04,12.28
		c0,2.24-0.4,4.36-1.19,6.34s-1.72,3.68-2.77,5.1c-1.06,1.42-2.56,2.92-4.5,4.5c-1.95,1.58-3.66,2.84-5.15,3.76
		c-1.48,0.92-3.45,2.11-5.89,3.56c-6.73,3.9-11.19,6.8-13.36,8.71c-4.95,4.42-7.49,9.7-7.62,15.84h41.28v3.76h-45.54v-2.18
		c0-3.03,0.45-5.86,1.34-8.46c0.89-2.61,1.93-4.77,3.12-6.48c1.19-1.72,2.87-3.48,5.05-5.3c2.18-1.81,4.06-3.22,5.64-4.21
		c1.58-0.99,3.7-2.24,6.34-3.76c0.2-0.13,0.36-0.23,0.49-0.3c0.13-0.06,0.28-0.15,0.45-0.25c0.16-0.1,0.31-0.18,0.45-0.25
		c2.64-1.58,4.49-2.71,5.54-3.37c1.06-0.66,2.59-1.75,4.6-3.27c2.01-1.52,3.43-2.84,4.26-3.96c0.82-1.12,1.62-2.56,2.38-4.31
		c0.76-1.75,1.14-3.61,1.14-5.59c0-4.02-1.65-7.21-4.95-9.55c-3.3-2.34-7.69-3.51-13.17-3.51c-7,0-13.73,2.15-20.2,6.44V136.94z"/>
	<path d="M594.33,136.94c5.94-4.16,12.77-6.24,20.49-6.24c6.47,0,11.71,1.52,15.74,4.55c4.03,3.04,6.04,7.13,6.04,12.28
		c0,2.24-0.4,4.36-1.19,6.34s-1.72,3.68-2.77,5.1c-1.06,1.42-2.56,2.92-4.5,4.5c-1.95,1.58-3.66,2.84-5.15,3.76
		c-1.48,0.92-3.45,2.11-5.89,3.56c-6.73,3.9-11.19,6.8-13.36,8.71c-4.95,4.42-7.49,9.7-7.62,15.84h41.28v3.76h-45.54v-2.18
		c0-3.03,0.45-5.86,1.34-8.46c0.89-2.61,1.93-4.77,3.12-6.48c1.19-1.72,2.87-3.48,5.05-5.3c2.18-1.81,4.06-3.22,5.64-4.21
		c1.58-0.99,3.7-2.24,6.34-3.76c0.2-0.13,0.36-0.23,0.49-0.3c0.13-0.06,0.28-0.15,0.45-0.25c0.16-0.1,0.31-0.18,0.45-0.25
		c2.64-1.58,4.49-2.71,5.54-3.37c1.06-0.66,2.59-1.75,4.6-3.27c2.01-1.52,3.43-2.84,4.26-3.96c0.82-1.12,1.62-2.56,2.38-4.31
		c0.76-1.75,1.14-3.61,1.14-5.59c0-4.02-1.65-7.21-4.95-9.55c-3.3-2.34-7.69-3.51-13.17-3.51c-7,0-13.73,2.15-20.2,6.44V136.94z"/>
</g>
</svg>
