<?xml version="1.0" encoding="utf-8"?>
<!-- Generator: Adobe Illustrator 26.5.0, SVG Export Plug-In . SVG Version: 6.00 Build 0)  -->
<svg version="1.1" id="Logo_1_" xmlns="http://www.w3.org/2000/svg" xmlns:xlink="http://www.w3.org/1999/xlink" x="0px" y="0px"
	 viewBox="0 0 678.6 174.6" style="enable-background:new 0 0 678.6 174.6;" xml:space="preserve">
<style type="text/css">
	.st0{fill:#1390CF;}
	.st1{fill:#33C0DD;}
	.st2{fill:#0099D6;}
	.st3{fill:#96D8ED;}
	.st4{fill:#1BA0DA;}
	.st5{fill:#1190CF;}
	.st6{fill:#056DB5;}
	.st7{fill:#1C3A69;}
	.st8{fill:#005893;}
	.st9{fill:#005D9D;}
	.st10{fill:#134F7E;}
	.st11{fill:#1D4D82;}
	.st12{fill:#4DA2D3;}
	.st13{fill:#2D68B1;}
	.st14{fill:#50A2D2;}
	.st15{fill:#6AACD1;}
	.st16{fill:#72CDE6;}
	.st17{fill:#42467F;}
	.st18{fill:#98CBE6;}
	.st19{fill:#54A4D3;}
	.st20{fill:#0062A7;}
	.st21{fill:#5CABD8;}
	.st22{fill:#1278B9;}
	.st23{fill:#53A5D4;}
	.st24{fill:#0678BD;}
	.st25{fill:#1279BB;}
	.st26{fill:#4BA1D3;}
	.st27{fill:#92C7E6;}
	.st28{fill:#21C1E4;}
	.st29{fill:#92C6E4;}
	.st30{fill:#4BA2D3;}
	.st31{fill:#94D7EC;}
	.st32{fill:#2763A1;}
	.st33{fill:#38C3E3;}
	.st34{fill:#0086FF;}
	.st35{enable-background:new    ;}
</style>
<g id="BL_2021">
	<g>
		<g id="Группа_1_2_">
			<g id="Фигура_117_1_">
				<g>
					<path class="st0" d="M79.9,57.2h11.3l0,0c0.8,0,1.6,0.1,2.3,0.3L94.1,40L79.9,57.2z"/>
				</g>
			</g>
			<g id="Фигура_42_1_">
				<g>
					<path class="st1" d="M100.1,43.6l-5.9-3.5l-0.1,0.7l-0.5,16.7c0.3,0.1,0.5,0.1,0.8,0.2l2-1.9l3.7-7.4l0.8-3.1L100.1,43.6z"/>
				</g>
			</g>
			<g id="Фигура_41_1_">
				<g>
					<path class="st2" d="M103.3,39.9c-1,0-2,0.1-3,0.2v3.8l0,0l0.5,0.7l4.7,0.6l6.2,0.1l5.8-0.2C113.6,41.8,108.7,39.9,103.3,39.9z
						"/>
				</g>
			</g>
			<g id="Фигура_40_1_">
				<g>
					<path class="st3" d="M117.2,44.9L100.3,44l-6.7,13.3v0.2c0.3,0.1,0.7,0.2,1,0.3l8.2-1.9l8.6-5.5l7.6-4.2L117.2,44.9z"/>
				</g>
			</g>
			<g id="Фигура_39_1_">
				<g>
					<path class="st4" d="M117.6,45.1c-0.1-0.1-0.2-0.2-0.3-0.3L93.6,57.5c4.5,1.1,7.8,5.2,7.8,10h0.5l6.9-4.6l6.8-9l2.3-8
						L117.6,45.1z"/>
				</g>
			</g>
			<g id="Фигура_38_1_">
				<g>
					<path class="st5" d="M117.3,44.8l-15.9,22.8l11.4,2.3l9.6-4l2.8-1c0.1-1,0.2-1.9,0.2-2.9C125.5,55.1,122.3,48.9,117.3,44.8z"/>
				</g>
			</g>
			<g id="Фигура_37_1_">
				<g>
					<path class="st6" d="M125.5,61.8l-24,5.7l-0.1,0.2c0,0.5-0.1,1.1-0.1,1.6l1.5,4.5l6.3,8.1l3.1,0.6c7.9-3.4,13.4-11.3,13.4-20.4
						C125.5,62,125.5,61.9,125.5,61.8z"/>
				</g>
			</g>
			<g id="Фигура_36_1_">
				<g>
					<path class="st7" d="M100.3,72.1c-1.6,3.2-4.8,5.5-8.5,5.8l0,0H78.9l14.5,16.4l0.1,0.1c0.2,0,0.4,0,0.7-0.1l1.2-1.2l4.4-11.7
						l1.2-6.7L100.3,72.1z"/>
				</g>
			</g>
			<g id="Фигура_35_1_">
				<g>
					<path class="st8" d="M101.4,67.3c0,0.1,0,0.1,0,0.2c0,2.3-0.7,4.3-1.9,6l-6,20.8c0.5-0.1,1-0.1,1.5-0.1c1.1,0,2.2,0.1,3.3,0.4
						h1.9l6.3-5.3l4.1-3.9l2.1-2.8L101.4,67.3z"/>
				</g>
			</g>
			<g id="Фигура_34_1_">
				<g>
					<path class="st6" d="M115.4,86.2l-1.7-3.2c-0.3-0.1-0.7-0.2-1-0.3L93.6,94.4c0.4,0,0.9-0.1,1.3-0.1c6.9,0,12.4,5.6,12.4,12.5
						c0,0.4,0,0.7,0,1.1l5.3-3l3.5-6.4L115.4,86.2z"/>
				</g>
			</g>
			<g id="Фигура_33_1_">
				<g>
					<path class="st9" d="M112.6,82.6l-5.3,23.9c0,0.1,0,0.1,0,0.2c0,0.4,0,0.8-0.1,1.1l8.7,3l16.7,0.3c0-0.6,0.1-1.3,0.1-1.9
						C132.7,96.5,124.2,85.9,112.6,82.6z"/>
				</g>
			</g>
			<g id="Фигура_32_1_">
				<g>
					<path class="st7" d="M132.6,107l-25.3-0.3l0,0c0,1.4-0.2,2.8-0.7,4.1l0.6,5l2.7,7l5.8,8.4l3.3,1.6c8.1-4.8,13.6-13.6,13.6-23.8
						C132.7,108.4,132.6,107.7,132.6,107z"/>
				</g>
			</g>
			<g id="Фигура_31_1_">
				<g>
					<path class="st10" d="M107.3,106.7C107.3,106.7,107.3,106.8,107.3,106.7c0,6.9-5.6,12.5-12.4,12.5c-0.1,0-0.2,0-0.3,0l0,0h-1.5
						l0.5,6.4l16.1,6.2l7,2.3c1-0.5,2-1,3-1.6L107.3,106.7z"/>
				</g>
			</g>
			<g id="Фигура_30_копия_1_">
				<g>
					<path class="st7" d="M94.3,119.2L94.3,119.2H94h-1.5l-2.7,12.7l-1.1,4.7h16.8l0,0c5.3,0,10.2-1.6,14.4-4.2L94.3,119.2z"/>
				</g>
			</g>
			<g id="Фигура_29_1_">
				<g>
					<polygon class="st10" points="94.3,119.2 77.6,119.2 77.3,119.4 79.1,124.7 85.5,134.8 88.5,136.7 92,136.7 92,136.6 					"/>
				</g>
			</g>
			<g id="Фигура_28_1_">
				<g>
					<path class="st6" d="M77.6,119.2L77.6,119.2l-1.1,0.7c-0.1,0.2-0.1,0.3-0.1,0.3l-3.2,7.2l-0.8,1.6v7.7h19.5L77.6,119.2z"/>
				</g>
			</g>
			<g id="Фигура_27_1_">
				<g>
					<polygon class="st11" points="72.4,122.7 72.4,136.4 77.6,119.3 					"/>
				</g>
			</g>
			<g id="Фигура_8_1_">
				<g>
					<polygon class="st12" points="47.1,39.8 37.7,49.2 52.7,49.5 					"/>
				</g>
			</g>
			<g id="Фигура_9_1_">
				<g>
					<polygon class="st13" points="57.1,39.8 54.2,48.4 66.1,47.3 					"/>
				</g>
			</g>
			<g id="Фигура_8_копия_1_">
				<g>
					<polygon class="st14" points="37.4,128.5 45.5,136.8 50.4,128.2 					"/>
				</g>
			</g>
			<g id="Фигура_13_1_">
				<g>
					<polygon class="st15" points="87.8,29.4 87.8,38.3 95,29.4 					"/>
				</g>
			</g>
			<g id="Фигура_13_копия_1_">
				<g>
					<polygon class="st16" points="58.7,30.4 70.3,37 70.5,30.9 					"/>
				</g>
			</g>
			<g id="Фигура_23_1_">
				<g>
					<polygon class="st17" points="89.6,137.9 89.3,146.5 97.5,146.5 					"/>
				</g>
			</g>
			<g id="Фигура_24_1_">
				<g>
					<polygon class="st7" points="94.1,140.2 102,148.8 102,140.2 					"/>
				</g>
			</g>
			<g id="Фигура_26_1_">
				<g>
					<polygon class="st18" points="58.1,138.6 57.5,146.5 68.4,147 					"/>
				</g>
			</g>
			<g id="Фигура_44_1_">
				<g>
					<polygon class="st6" points="56.4,110.8 58,126.1 71.2,116 					"/>
				</g>
			</g>
			<g id="Фигура_45_1_">
				<g>
					<polygon class="st19" points="48,120.3 52.6,128.8 54.4,120.4 					"/>
				</g>
			</g>
			<g id="Фигура_46_1_">
				<g>
					<polygon class="st20" points="78.8,103.7 68,108.6 79.1,113.7 					"/>
				</g>
			</g>
			<g id="Фигура_47_1_">
				<g>
					<polygon class="st21" points="61.8,102.4 58.3,108.1 68.3,106.4 					"/>
				</g>
			</g>
			<g id="Фигура_48_1_">
				<g>
					<polygon class="st22" points="49.2,98.1 49.4,105 54.7,105 					"/>
				</g>
			</g>
			<g id="Фигура_49_1_">
				<g>
					<polygon class="st23" points="78.2,93.9 75,102.9 82.9,98.4 					"/>
				</g>
			</g>
			<g id="Фигура_50_1_">
				<g>
					<polygon class="st24" points="63,84.8 67.5,100.5 76.7,92.1 					"/>
				</g>
			</g>
			<g id="Фигура_51_1_">
				<g>
					<polygon class="st18" points="51.4,93.8 56.5,96.8 60,90.8 					"/>
				</g>
			</g>
			<g id="Фигура_52_1_">
				<g>
					<polygon class="st25" points="79.4,82.5 79.5,90 86.2,90.2 					"/>
				</g>
			</g>
			<g id="Фигура_53_1_">
				<g>
					<polygon class="st19" points="58.5,78.8 56,84.5 60.5,83.3 					"/>
				</g>
			</g>
			<g id="Фигура_54_1_">
				<g>
					<polygon class="st26" points="76.7,78.8 63.5,75.8 76.9,87.7 					"/>
				</g>
			</g>
			<g id="Фигура_55_1_">
				<g>
					<polygon class="st12" points="46.8,75.6 49.2,79.6 52.5,77.7 					"/>
				</g>
			</g>
			<g id="Фигура_56_1_">
				<g>
					<polygon class="st27" points="54.6,67.5 55.1,77.6 59.4,74.6 					"/>
				</g>
			</g>
			<g id="Фигура_57_1_">
				<g>
					<polygon class="st28" points="60.4,68 77.2,75.6 80.4,60.9 					"/>
				</g>
			</g>
			<g id="Фигура_58_1_">
				<g>
					<polygon class="st29" points="48.7,66.5 50.6,68.2 50.7,63.3 					"/>
				</g>
			</g>
			<g id="Фигура_59_1_">
				<g>
					<polygon class="st30" points="52.2,53.7 50,56.3 54.2,58.7 					"/>
				</g>
			</g>
			<g id="Фигура_60_1_">
				<g>
					<polygon class="st31" points="59.2,49.3 63,63 71.2,54.2 					"/>
				</g>
			</g>
			<g id="Фигура_61_1_">
				<g>
					<polygon class="st6" points="70.6,124.2 56.9,134.2 70.7,145.4 					"/>
				</g>
			</g>
			<g id="Фигура_61_копия_1_">
				<g>
					<polygon class="st32" points="53.3,136.3 49.2,139.3 57,139.3 					"/>
				</g>
			</g>
			<g id="Фигура_62_1_">
				<g>
					<polygon class="st33" points="53.4,29.6 53.7,36.6 69.8,39.1 					"/>
				</g>
			</g>
			<g id="Фигура_63_1_">
				<g>
					<polygon class="st13" points="91.9,37.3 98.9,41.4 98.9,29.3 					"/>
				</g>
			</g>
			<g id="Фигура_67_1_">
				<g>
					<path class="st15" d="M89.1,39.7l-17.8-0.2h-0.1l0,0l3.8,2.6h-0.1l0.1,0.1l-0.3,0.6c0,0-0.2,0.2-0.5,0.1l0.8,3.6l6.6,1.5
						l0.6-0.1l1.1-1.3L89.1,39.7L89.1,39.7L89.1,39.7z"/>
				</g>
			</g>
			<g id="Фигура_66_1_">
				<g>
					<polygon class="st16" points="75,42 73,44.3 72.9,48.9 77.4,52.6 77.6,53 77.7,53 83.3,46.6 					"/>
				</g>
			</g>
			<g id="Фигура_65_1_">
				<g>
					<path class="st33" d="M75,42.1l-15.3-2.5l18,13.4L75,42.1z M75,42L75,42L75,42L75,42z"/>
				</g>
			</g>
		</g>
		<g id="Прямоугольник_1_копия_2_2_">
			<g>
				<g id="Прямоугольник_1_копия_2_11_">
					<g>
						<path class="st34" d="M0.3,0v174.6h173.9V0H0.3z M161.8,162.2H12.7V12.4h149.1L161.8,162.2L161.8,162.2z"/>
					</g>
				</g>
			</g>
		</g>
	</g>
	<g>
		<g id="Blockchain_2_">
			<g>
				<g id="Blockchain_11_">
					<g>
						<path class="st34" d="M240.3,35.4c6.1-2.1,10.4-7,10.4-15.1c0-11.8-9.1-17.4-23.7-17.4h-30v68.9h29.5c12,0,27-3.6,27-19.3
							C253.5,42.4,247.1,37.4,240.3,35.4z M211.7,15h14c6.5,0,10.4,2.5,10.4,7.9c0,5.3-4,7.9-9.6,7.9h-14.8L211.7,15L211.7,15z
							 M226.3,59.8h-14.7V42.1h15.5c5.9,0,11.7,1.6,11.7,8.9C238.8,58.5,232.9,59.8,226.3,59.8z M262.4,71.8H276V0h-13.6V71.8z
							 M311.2,23.2c-13.6,0-26,8.5-26,25s12.4,25,26,25c13.7,0,26-8.5,26-25S324.9,23.2,311.2,23.2z M311.2,61
							c-7.7,0-12.1-5.5-12.1-12.8s4.3-12.8,12.1-12.8c7.8,0,12.2,5.5,12.2,12.8C323.3,55.5,319,61,311.2,61z M357.4,48.2
							c0-9.6,7.2-13.2,14.6-13.2c4.5,0,9.2,1.4,12.6,3.5v-12c-4.2-2.3-9.3-3.4-14.5-3.4c-13,0-26.6,7.7-26.6,25.8
							c0,16.8,12.8,24.3,25.7,24.3c6,0,11.3-1.2,15.9-3.2V58c-3.4,2.1-8.2,3.4-13.2,3.4C364.4,61.4,357.4,57.3,357.4,48.2z
							 M440.7,24.6h-15.3l-12,17.6h-5.7V2.9h-13.6v68.9h13.6V53.1h5.5l13.5,18.7H442l-17.4-23.9L440.7,24.6z M456.8,48.2
							c0-9.6,7.2-13.2,14.6-13.2c4.5,0,9.2,1.4,12.6,3.5v-12c-4.2-2.3-9.3-3.4-14.5-3.4c-13,0-26.6,7.7-26.6,25.8
							c0,16.8,12.8,24.3,25.7,24.3c6,0,11.3-1.2,15.9-3.2V58c-3.4,2.1-8.2,3.4-13.2,3.4C463.9,61.4,456.8,57.3,456.8,48.2z
							 M521.4,23.2c-5.9,0-10.7,2.5-14.1,5.7v-26h-13.7v68.9h13.6V41c2-2.9,5.7-6,10.5-6c5.3,0,9.1,3,9.1,9.4v27.5h13.6V42.6
							C540.5,31.7,533.7,23.2,521.4,23.2z M593.6,59.6v-15c0-15.6-9-21.4-23.2-21.4c-7.3,0-14.4,1.9-18.2,3.2v11.8
							c4.4-1.8,10.2-3.5,16.7-3.5c7.4,0,11.1,3.3,11.1,8v1.7c-3.3-0.8-7.5-1.3-11.2-1.3c-9.4,0-20.7,3.7-20.7,15.8
							c0,9.4,7.7,14.5,16.5,14.5c7,0,12.4-2.2,17-5.8c2,3.5,5.6,5.3,10.4,5.3c2.6,0,5.4-0.6,7.6-1.4v-9c-0.9,0.3-1.8,0.4-2.5,0.4
							C595.1,62.8,593.6,62.1,593.6,59.6z M579.9,59.6c-3.1,2.8-6.8,3.8-10.6,3.8c-4.1,0-7.4-2.3-7.4-5.8c0-4.8,4.9-6.5,9.9-6.5
							c2.8,0,6,0.6,8,1.1L579.9,59.6L579.9,59.6z M606,71.8h13.6V24.6H606V71.8z M612.8,1.3c-4.2,0-7.9,2.4-7.9,7.7
							c0,5.4,3.7,7.8,7.9,7.8c4.3,0,8-2.4,8-7.8S617.1,1.3,612.8,1.3z M659.2,23.2c-6.8,0-12.1,3.2-15.7,7.4v-6h-12.1v47.3H645V41
							c2-2.9,5.7-6,10.5-6c5.3,0,9.1,3,9.1,9.4v27.5h13.6V42.6C678.3,31.7,671.6,23.2,659.2,23.2z"/>
					</g>
				</g>
			</g>
		</g>
		<g id="Life_2_">
			<g>
				<g id="Life_11_">
					<g>
						<path class="st34" d="M211.7,104.3H197v68.9h48.4v-13.3h-33.6v-55.6L211.7,104.3L211.7,104.3z M259.3,102.6
							c-4.2,0-7.9,2.4-7.9,7.7c0,5.4,3.7,7.8,7.9,7.8c4.3,0,8-2.4,8-7.8C267.3,105,263.6,102.6,259.3,102.6z M252.5,173.2h13.6
							v-47.3h-13.6V173.2z M282.5,121.3v4.6h-8.1v11.5h8.1v35.7H296v-35.7h14.4v-11.5H296v-4c0-5.9,4-7.5,8.4-7.5c3,0,6.1,0.8,8.1,2
							v-11.5c-3-1.2-7.3-2-11.6-2C292.1,102.9,282.5,107.1,282.5,121.3z M337.9,124.6c-10.6,0-24.2,7.2-24.2,25
							c0,16.4,12.4,25,27.3,25c7.1,0,12.8-1.1,17.3-3v-10.7c-4,1.8-8.8,2.9-14.2,2.9c-7.7,0-15-2.9-16.6-9.7h33.1
							C363.7,140,357.5,124.6,337.9,124.6z M348.3,145.2h-21c0.2-6.5,5.3-10.1,11.1-10.1C347,135,348.8,141.9,348.3,145.2z"/>
					</g>
				</g>
			</g>
		</g>
	</g>
</g>
<g class="st35">
	<path d="M392.2,111c5.9-4.2,12.8-6.2,20.5-6.2c6.5,0,11.7,1.5,15.7,4.6c4,3,6,7.1,6,12.3c0,2.2-0.4,4.4-1.2,6.3
		c-0.8,2-1.7,3.7-2.8,5.1c-1.1,1.4-2.6,2.9-4.5,4.5s-3.7,2.8-5.1,3.8c-1.5,0.9-3.5,2.1-5.9,3.6c-6.7,3.9-11.2,6.8-13.4,8.7
		c-5,4.4-7.5,9.7-7.6,15.8h41.3v3.8h-45.5v-2.2c0-3,0.4-5.9,1.3-8.5s1.9-4.8,3.1-6.5s2.9-3.5,5-5.3c2.2-1.8,4.1-3.2,5.6-4.2
		s3.7-2.2,6.3-3.8c0.2-0.1,0.4-0.2,0.5-0.3s0.3-0.1,0.4-0.2c0.2-0.1,0.3-0.2,0.4-0.2c2.6-1.6,4.5-2.7,5.5-3.4
		c1.1-0.7,2.6-1.7,4.6-3.3c2-1.5,3.4-2.8,4.3-4c0.8-1.1,1.6-2.6,2.4-4.3c0.8-1.7,1.1-3.6,1.1-5.6c0-4-1.7-7.2-5-9.6
		c-3.3-2.3-7.7-3.5-13.2-3.5c-7,0-13.7,2.1-20.2,6.4V111H392.2z"/>
	<path d="M453.7,164.8c-5-6.3-7.4-14.8-7.4-25.2s2.5-18.9,7.4-25.2s12.2-9.5,21.7-9.5c9.6,0,16.8,3.2,21.7,9.5
		c4.9,6.3,7.4,14.7,7.4,25.3s-2.5,19-7.4,25.3s-12.2,9.5-21.7,9.5C465.9,174.3,458.7,171.1,453.7,164.8z M494.2,162.3
		c4.2-5.5,6.3-13.1,6.3-22.7c0-9.6-2.1-17.2-6.3-22.7s-10.5-8.3-18.8-8.3s-14.6,2.8-18.8,8.3c-4.2,5.5-6.3,13.1-6.3,22.7
		c0,9.6,2.1,17.2,6.3,22.7c4.2,5.5,10.5,8.3,18.8,8.3C483.7,170.5,490,167.8,494.2,162.3z"/>
	<path d="M517.3,111c5.9-4.2,12.8-6.2,20.5-6.2c6.5,0,11.7,1.5,15.7,4.6c4,3,6,7.1,6,12.3c0,2.2-0.4,4.4-1.2,6.3
		c-0.8,2-1.7,3.7-2.8,5.1c-1.1,1.4-2.6,2.9-4.5,4.5s-3.7,2.8-5.1,3.8c-1.5,0.9-3.4,2.1-5.9,3.6c-6.7,3.9-11.2,6.8-13.4,8.7
		c-5,4.4-7.5,9.7-7.6,15.8h41.3v3.8h-45.5v-2.2c0-3,0.4-5.9,1.3-8.5c0.9-2.6,1.9-4.8,3.1-6.5c1.2-1.7,2.9-3.5,5-5.3
		c2.2-1.8,4.1-3.2,5.6-4.2s3.7-2.2,6.3-3.8c0.2-0.1,0.4-0.2,0.5-0.3s0.3-0.1,0.4-0.2c0.2-0.1,0.3-0.2,0.4-0.2
		c2.6-1.6,4.5-2.7,5.5-3.4c1.1-0.7,2.6-1.7,4.6-3.3c2-1.5,3.4-2.8,4.3-4c0.8-1.1,1.6-2.6,2.4-4.3c0.8-1.7,1.1-3.6,1.1-5.6
		c0-4-1.7-7.2-4.9-9.6c-3.3-2.3-7.7-3.5-13.2-3.5c-7,0-13.7,2.1-20.2,6.4V111H517.3z"/>
	<path d="M615.5,122.7c0,3.6-1.1,6.9-3.3,9.8s-5.3,4.7-9.3,5.6c4.4,0.9,8.1,2.7,11,5.6s4.4,6.8,4.4,11.7c0,5.9-2.1,10.6-6.4,13.9
		c-4.3,3.3-9.8,5-16.6,5c-9.5,0-17.3-1.5-23.5-4.5v-3.9c6.3,3.1,14.1,4.6,23.2,4.6c5.9,0,10.7-1.3,14.3-4c3.6-2.6,5.3-6.4,5.3-11.4
		c0-5.1-1.8-8.8-5.5-11.3c-3.7-2.4-8.4-3.7-14.1-3.7h-9.9v-3.8l9.5,0.1c5.6,0,9.9-1.3,12.8-3.9c2.9-2.6,4.4-5.8,4.4-9.7
		c0-4.2-1.6-7.7-4.9-10.4c-3.2-2.7-7.7-4.1-13.5-4.1c-7.1,0-13.9,1.6-20.4,4.7v-3.9c6.1-3,13.1-4.5,20.8-4.5
		c6.6,0,11.9,1.7,15.8,5.1C613.5,113.4,615.5,117.6,615.5,122.7z"/>
</g>
</svg>
