<svg xmlns="http://www.w3.org/2000/svg" viewBox="0 0 133 21" height="30">
    <path fill="#333" fill-rule="nonzero" d="m10.304 8.423-5.016.001c-.96 0-1.44.48-1.44 1.44V18H.32V9.432c0-1.136.328-2.052.984-2.748.656-.696 1.68-1.044 3.072-1.044h9.456v2.783h-3.528Zm15.704 9.697c2.144 0 3.816-.532 5.016-1.596 1.2-1.064 1.8-2.628 1.8-4.692 0-2.08-.6-3.652-1.8-4.716-1.2-1.064-2.872-1.596-5.016-1.596h-4.44c-2.144 0-3.816.532-5.016 1.596-1.2 1.064-1.8 2.636-1.8 4.716 0 2.064.6 3.628 1.8 4.692 1.2 1.064 2.872 1.596 5.016 1.596h4.44Zm0-2.76h-4.44c-1.04 0-1.836-.288-2.388-.864-.552-.576-.828-1.464-.828-2.664 0-1.216.276-2.112.828-2.688.552-.576 1.348-.864 2.388-.864h4.44c1.04 0 1.836.288 2.388.864.552.576.828 1.472.828 2.688 0 1.2-.276 2.088-.828 2.664-.552.576-1.348.864-2.388.864Zm18.752 2.76c2.144 0 3.816-.532 5.016-1.596 1.2-1.064 1.8-2.628 1.8-4.692 0-2.08-.6-3.652-1.8-4.716-1.2-1.064-2.872-1.596-5.016-1.596h-4.44c-2.144 0-3.816.532-5.016 1.596-1.2 1.064-1.8 2.636-1.8 4.716 0 2.064.6 3.628 1.8 4.692 1.2 1.064 2.872 1.596 5.016 1.596h4.44Zm0-2.76h-4.44c-1.04 0-1.836-.288-2.388-.864-.552-.576-.828-1.464-.828-2.664 0-1.216.276-2.112.828-2.688.552-.576 1.348-.864 2.388-.864h4.44c1.04 0 1.836.288 2.388.864.552.576.828 1.472.828 2.688 0 1.2-.276 2.088-.828 2.664-.552.576-1.348.864-2.388.864ZM56.215 18h5.401c2.144 0 3.816-.528 5.016-1.584 1.2-1.056 1.8-2.584 1.8-4.584 0-2.016-.6-3.552-1.8-4.608-1.2-1.056-2.872-1.584-5.016-1.584h-5.401l.001-4.8h-3.48V18h3.479Zm0-9.6h5.401c1.04 0 1.836.284 2.388.852.552.568.828 1.428.828 2.58 0 1.136-.276 1.988-.828 2.556-.552.568-1.348.852-2.388.852h-5.401V8.4Zm16.881-4.8V.888h-3.528V3.6h3.528ZM73.072 18V5.64h-3.48V18h3.48Zm5.12 0V8.4h6.432c.96 0 1.44.48 1.44 1.44V18h3.48V9.432c0-1.136-.324-2.052-.972-2.748-.648-.696-1.676-1.044-3.084-1.044H74.712V18h3.48ZM94.568 3.6V.888H91.04V3.6h3.528ZM94.544 18V5.64h-3.48V18h3.48Zm12.296 0c1.408 0 2.436-.352 3.084-1.056.648-.704.972-1.616.972-2.736V5.64h-3.48v8.16c0 .96-.48 1.44-1.44 1.44h-4.992c-.96 0-1.44-.48-1.44-1.44V5.64h-3.48v8.568c0 1.12.324 2.032.972 2.736.648.704 1.676 1.056 3.084 1.056h6.72Zm9.056 0V8.4h4.824V18h3.48V8.4h3.336c.992 0 1.488.488 1.488 1.464V18h3.48V9.432c0-1.136-.328-2.052-.984-2.748-.656-.696-1.688-1.044-3.096-1.044h-16.008V18h3.48Z"/>
</svg>
