<svg xmlns="http://www.w3.org/2000/svg" viewBox="0 0 404.282 80.469" height="35">
    <path fill="#fcb11f" d="M49.344 56.492h22.505V.229H49.344v56.263Zm-1.407 2.814s-17.882 1.134-22.505-4.22-3.717-14.25-3.717-23.66V-.003L.115.229v30.945c-.001 17.867-1.671 30.018 7.029 39.36 9.786 10.509 24.08 10.092 40.79 9.87V59.306Z"/>
    <path fill="#333" d="M121.917 44.006h-4.327v9.931a16.135 16.135 0 0 1-4.671.762 10.277 10.277 0 0 1-8.19-3.358q-2.922-3.358-2.922-9.4 0-6.1 2.73-9.447a9.348 9.348 0 0 1 7.676-3.348q3.357 0 9.663 2.143v-4a36.34 36.34 0 0 0-9.622-1.381q-7.15 0-11.1 4.193t-3.941 11.822q0 7.747 3.884 11.878t11.157 4.131a35.824 35.824 0 0 0 9.663-1.587V44.006Zm11.765 13.166V24.636h-4.059V57.17h4.059Zm24.838-2.637q2.874-3.153 2.875-8.551t-2.875-8.54a11.249 11.249 0 0 0-15.6 0q-2.874 3.142-2.874 8.54t2.874 8.551a11.222 11.222 0 0 0 15.6-.002Zm-12.489-2.163a10.674 10.674 0 0 1-1.655-6.387 10.626 10.626 0 0 1 1.655-6.377 5.992 5.992 0 0 1 9.37 0 10.575 10.575 0 0 1 1.667 6.377 10.623 10.623 0 0 1-1.667 6.387 5.975 5.975 0 0 1-9.37-.003Zm25.274 5.048.495-2.782a8.7 8.7 0 0 0 13.526-.361 14.3 14.3 0 0 0 2.627-8.973q0-5.11-2.318-8.056a7.646 7.646 0 0 0-6.356-2.946 8.013 8.013 0 0 0-7.479 4.7V24.636h-4.056v32.781h3.564Zm.495-15.87q3.234-3.684 6.634-3.684 5.193 0 5.192 7.861a11.992 11.992 0 0 1-1.524 6.575 4.874 4.874 0 0 1-4.327 2.336q-2.844 0-5.975-2.8v-10.29Zm37.664 16.135a6.981 6.981 0 0 0 3.049-.659l-.288-2.246a5.4 5.4 0 0 1-.783.082q-2.144 0-2.143-3.482V41.243q0-3.544-1.772-5.244t-5.5-1.7a20.542 20.542 0 0 0-7.727 1.669v3.358a14.854 14.854 0 0 1 6.882-1.978q4.059 0 4.059 3.894v2.7h-.948q-5.769 0-8.849 1.968a6.3 6.3 0 0 0-3.08 5.635 5.808 5.808 0 0 0 1.833 4.4 6.437 6.437 0 0 0 4.616 1.741q3.378 0 7.026-3.358.783 3.359 3.626 3.358Zm-9.5-3.317a3.457 3.457 0 0 1-2.514-1.009 3.327 3.327 0 0 1-1.03-2.473 3.783 3.783 0 0 1 2.07-3.338 10.413 10.413 0 0 1 5.45-1.257l1.3.041v5.79a8.455 8.455 0 0 1-5.274 2.246Zm21.7 2.8V24.636h-4.059V57.17h4.059Zm21.119-11.291q0 6.2 2.73 9.128t8.52 2.926a11.052 11.052 0 0 0 7.026-2.019 8.6 8.6 0 0 0 2.823-3.77 18.726 18.726 0 0 0 .783-6.14V26.676h-3.812v19.388q0 4.7-1.512 6.666t-5.133 1.968q-3.7 0-5.4-2.091t-1.7-6.686V26.676h-4.327v19.2Zm33.661 11.293V42.685q3.3-4.883 7.026-4.883a2.73 2.73 0 0 1 2.421 1.061 6.494 6.494 0 0 1 .732 3.554V57.17h4.058V41.099a6.973 6.973 0 0 0-1.72-4.955 6.048 6.048 0 0 0-4.646-1.844q-4.658 0-7.871 4.7v-4.2h-4.059v22.37h4.059Zm26.188 0V34.794h-4.059V57.17h4.059Zm0-26.435v-4.059h-4.059v4.059h4.059Zm18.112 23.633a8.893 8.893 0 0 1-1.957.268q-3.792 0-3.792-4.389v-12.4h5.852v-3.053h-5.852v-4.451l-4.059.392v4.059h-2.8v3.049h2.8v13.146a6.747 6.747 0 0 0 1.731 4.924 6.43 6.43 0 0 0 4.822 1.772 12.557 12.557 0 0 0 3.255-.515v-2.8Zm23.324 2.8V45.055h1.916q5.852 0 9.148-2.761a9.406 9.406 0 0 0 3.3-7.623 8.1 8.1 0 0 0-1.628-5.336 6.471 6.471 0 0 0-3.183-2.071 20.138 20.138 0 0 0-5.532-.587h-8.3V57.17h4.286Zm0-27.259h2.658q3.832 0 5.491 1.175a4.44 4.44 0 0 1 1.658 3.894 6.211 6.211 0 0 1-2.1 5.027 8.981 8.981 0 0 1-5.955 1.772h-1.751V29.906Zm34.326 27.774a6.988 6.988 0 0 0 3.05-.659l-.289-2.246a5.37 5.37 0 0 1-.783.082q-2.142 0-2.142-3.482V41.243q0-3.544-1.772-5.244t-5.5-1.7a20.534 20.534 0 0 0-7.726 1.669v3.358a14.85 14.85 0 0 1 6.881-1.978q4.059 0 4.059 3.894v2.7h-.947q-5.77 0-8.85 1.968a6.3 6.3 0 0 0-3.08 5.635 5.805 5.805 0 0 0 1.834 4.4 6.435 6.435 0 0 0 4.615 1.741q3.379 0 7.026-3.358.783 3.359 3.626 3.358Zm-9.5-3.317a3.457 3.457 0 0 1-2.514-1.009 3.327 3.327 0 0 1-1.03-2.473 3.782 3.782 0 0 1 2.071-3.338 10.407 10.407 0 0 1 5.449-1.257l1.3.041v5.79a8.455 8.455 0 0 1-5.274 2.246Zm23.164 10.94 12.218-30.515h-3.84l-6.831 16.839-6.4-16.839h-4.4l8.651 22.369-3.637 8.146h4.239Z"/>
</svg>
