<svg xmlns="http://www.w3.org/2000/svg" viewBox="0 0 200 87.2">
  <path fill="#4e94d7" d="M116.5 61.7c-9.9 9.8-26 9.8-35.9-.1-9.9-9.9-9.9-26.1 0-36 9.9-9.9 25.9-9.9 35.9-.1l58 61.7H200l-70.3-74.1-.1-.1-.1-.1c-4.1-4.1-9-7.4-14.4-9.6C109.9 1.2 104.4.1 98.7.1s-11.2 1-16.4 3.1C76.9 5.4 72 8.6 67.9 12.8c-4.1 4.1-7.4 9-9.6 14.4-1 2.4-1.7 4.8-2.2 7.3L24.4 0H0s63.7 70.1 67.9 74.3c4.1 4.1 9 7.4 14.4 9.6C87.5 86 93 87 98.6 87s11.1-1.1 16.4-3.2c5.4-2.2 10.2-5.4 14.4-9.6l.1-.1L139.7 63l-12.3-13.3-10.9 12z"/>
</svg>
