<svg xmlns="http://www.w3.org/2000/svg" fill="none" viewBox="0 0 483 72" height="30">
    <path fill="#333" fill-rule="evenodd" d="M65.163 7.73H7.837v56.54h57.326V7.73ZM0 0v72h73V0H0Zm53.052 20.389-1.303 5.202c-.542 2.178-2.536 3.701-4.821 3.701H26.27l1.303-5.21c.542-2.17 2.528-3.693 4.813-3.693h20.665ZM24.483 36.9a4.937 4.937 0 0 1 4.799-3.75h14.442l-1.3 5.271a4.944 4.944 0 0 1-4.806 3.759h-5.104l-1.706 7.088a4.97 4.97 0 0 1-4.822 3.767h-5.432l3.93-16.135Z" clip-rule="evenodd"/>
    <path fill="#333" d="M110.888 42.073v17.083H100V11h33.999v9.983h-23.111v11.53h21.285v9.56h-21.285Zm44.407-19.684c2.763 0 5.315.492 7.657 1.476 2.388.984 4.449 2.32 6.181 4.007 1.733 1.687 3.091 3.68 4.075 5.976.983 2.296 1.475 4.757 1.475 7.382 0 2.624-.492 5.085-1.475 7.381a18.51 18.51 0 0 1-4.075 5.905c-1.732 1.688-3.793 3.023-6.181 4.008-2.342.984-4.894 1.476-7.657 1.476s-5.339-.469-7.727-1.406c-2.342-.984-4.379-2.32-6.112-4.007-1.732-1.687-3.09-3.68-4.074-5.976-.937-2.296-1.405-4.757-1.405-7.381 0-2.625.492-5.086 1.475-7.382.984-2.297 2.318-4.289 4.004-5.976 1.733-1.687 3.77-3.023 6.112-4.007 2.388-.984 4.964-1.476 7.727-1.476Zm0 8.858a9.81 9.81 0 0 0-3.864.773 9.108 9.108 0 0 0-3.09 2.039c-.843.89-1.522 1.945-2.038 3.163-.468 1.219-.702 2.555-.702 4.008 0 1.452.234 2.788.702 4.007.469 1.218 1.124 2.273 1.967 3.163a9.228 9.228 0 0 0 3.021 2.11c1.171.515 2.435.773 3.793.773s2.646-.258 3.864-.774a9.846 9.846 0 0 0 3.161-2.109 9.84 9.84 0 0 0 2.107-3.163c.515-1.219.773-2.555.773-4.007 0-1.453-.258-2.79-.773-4.008a8.963 8.963 0 0 0-2.037-3.163c-.843-.89-1.873-1.57-3.091-2.039-1.171-.516-2.435-.773-3.793-.773Zm22.543-11.248V11h9.764v8.999h-9.764Zm0 39.157V23.092h9.764v36.064h-9.764Zm13.72 0V11h9.834v48.156h-9.834Zm13.789 0V48.963h10.115v10.193h-10.115Zm25.581-30.51v30.51h-10.466V11h11.871l19.388 30.581V11h10.467v48.156h-11.872l-19.388-30.51Zm71.563 22.777a19.393 19.393 0 0 1-6.884 6.327c-2.763 1.5-6.159 2.25-10.186 2.25-2.904 0-5.526-.469-7.868-1.406-2.294-.984-4.285-2.296-5.971-3.937-1.639-1.687-2.903-3.679-3.793-5.975-.89-2.297-1.335-4.781-1.335-7.452 0-2.578.445-5.015 1.335-7.312.937-2.296 2.248-4.288 3.934-5.975 1.686-1.735 3.7-3.094 6.041-4.078 2.342-.984 4.917-1.476 7.727-1.476 2.857 0 5.409.469 7.657 1.406 2.248.937 4.145 2.226 5.69 3.866 1.592 1.64 2.81 3.586 3.653 5.835.843 2.203 1.264 4.617 1.264 7.241 0 .703-.023 1.43-.07 2.18a42.52 42.52 0 0 0-.07 1.265h-27.537c.515 2.297 1.592 4.125 3.232 5.484 1.685 1.359 3.793 2.038 6.322 2.038 2.201 0 4.074-.421 5.619-1.265a11.825 11.825 0 0 0 3.934-3.515l7.306 4.5Zm-17.07-21.02c-2.295 0-4.215.586-5.76 1.758-1.499 1.125-2.576 2.718-3.232 4.78h17.492c-.515-2.203-1.569-3.843-3.161-4.92-1.593-1.079-3.372-1.618-5.339-1.618Zm43.059-7.311v8.717h-8.851v14.482c0 1.64.374 2.812 1.124 3.515.796.657 2.013.985 3.653.985h4.074v8.365h-4.777c-4.824 0-8.336-1.03-10.537-3.093-2.201-2.109-3.301-5.202-3.301-9.28V31.81h-5.199v-8.717h5.199v-9.28h9.764v9.28h8.851Zm28.858 15.466-4.917 20.598h-12.364l-9.202-36.064h9.835l5.9 24.816 6.112-24.816h9.834l6.041 24.957 5.971-24.957h9.484l-9.273 36.064h-12.504l-4.917-20.598Zm45.946-16.17c2.763 0 5.315.493 7.657 1.477 2.388.984 4.449 2.32 6.182 4.007 1.732 1.688 3.09 3.68 4.074 5.976.983 2.296 1.475 4.757 1.475 7.382 0 2.624-.492 5.085-1.475 7.381a18.523 18.523 0 0 1-4.074 5.906c-1.733 1.687-3.794 3.023-6.182 4.007-2.342.984-4.894 1.476-7.657 1.476s-5.339-.469-7.727-1.406c-2.342-.984-4.379-2.32-6.112-4.007-1.732-1.687-3.09-3.68-4.074-5.976-.936-2.296-1.405-4.757-1.405-7.381 0-2.625.492-5.086 1.475-7.382.984-2.297 2.319-4.288 4.004-5.976 1.733-1.687 3.77-3.023 6.112-4.007 2.388-.984 4.964-1.476 7.727-1.476Zm0 8.859a9.81 9.81 0 0 0-3.864.773 9.108 9.108 0 0 0-3.09 2.039c-.843.89-1.522 1.945-2.038 3.163-.468 1.219-.702 2.555-.702 4.008 0 1.452.234 2.788.702 4.007.469 1.218 1.124 2.273 1.967 3.163a9.228 9.228 0 0 0 3.021 2.11c1.171.515 2.435.773 3.793.773s2.646-.258 3.864-.774a9.846 9.846 0 0 0 3.161-2.109 9.84 9.84 0 0 0 2.107-3.163c.515-1.219.773-2.555.773-4.007 0-1.453-.258-2.79-.773-4.008a8.963 8.963 0 0 0-2.037-3.163c-.843-.89-1.873-1.57-3.091-2.039-1.17-.515-2.435-.773-3.793-.773Zm22.543 27.91V23.091h9.764v4.92a14.206 14.206 0 0 1 4.426-3.936c1.779-.984 3.793-1.476 6.041-1.476v9.842c-3.606 0-6.252.937-7.938 2.812-1.639 1.828-2.458 4.312-2.458 7.452v16.45h-9.835Zm45.512-36.065h11.099l-13.839 17.927L483 59.156h-12.153l-11.45-14.833v14.833h-9.834V11h9.834v28.261l11.942-16.17Z"/>
</svg>
