<svg xmlns="http://www.w3.org/2000/svg" viewBox="0 0 206.4 26.4" style="enable-background:new 0 0 206.4 26.4" xml:space="preserve" width="180">
    <linearGradient id="a" gradientUnits="userSpaceOnUse" x1="206.437" y1="13.191" x2="0" y2="13.191">
        <stop offset="0" style="stop-color:#38d4a2"/>
        <stop offset="1" style="stop-color:#0086ed"/>
    </linearGradient>
    <path fill="url(#a)" d="M0 13.2C0 5.4 6.1 0 14 0s14 5.4 14 13.2c0 7.8-6.1 13.2-14 13.2S0 21 0 13.2zm20.1 0c0-3.6-2.4-6.4-6.1-6.4-3.7 0-6.1 2.8-6.1 6.4 0 3.6 2.4 6.4 6.1 6.4 3.7 0 6.1-2.9 6.1-6.4zm26.2 12.7-3.5-8H40v8h-7.7V.4h13.6c6 0 9.2 4 9.2 8.8 0 4.4-2.6 6.7-4.6 7.7l4.6 9h-8.8zm.9-16.8c0-1.4-1.2-2-2.5-2H40v4h4.7c1.3.1 2.5-.5 2.5-2zm11.3 4.1c0-7.8 6.1-13.2 14-13.2s14 5.4 14 13.2c0 7.8-6.1 13.2-14 13.2s-14-5.4-14-13.2zm20 0c0-3.6-2.4-6.4-6.1-6.4-3.7 0-6.1 2.8-6.1 6.4 0 3.6 2.4 6.4 6.1 6.4 3.7 0 6.1-2.9 6.1-6.4zm12.3 2.2V.4h7.8v14.8c0 2.4 1.6 4.4 4.8 4.4 3.1 0 4.7-2 4.7-4.4V.4h7.8v15c0 6.3-4 11-12.6 11s-12.5-4.6-12.5-11zm48.1 10.5L129.5 13v12.9h-7.7V.4h8l8.9 12.1V.4h7.7v25.5h-7.5zm13.1 0V.4h11.4c8 0 14 4.6 14 12.7s-6 12.8-14 12.8H152zm17.6-12.7c0-3.4-2-6-6.1-6h-3.7v12h3.7c3.8 0 6.1-2.8 6.1-6zm28.1 12.7-.9-3h-9.2l-.9 3h-8.8L187.3.4h9.7l9.4 25.5h-8.7zM192.2 8l-2.5 8.2h5L192.2 8z"/>
</svg>
