<svg xmlns="http://www.w3.org/2000/svg" viewBox="0 0 456.83 88.99" height="40">
    <path fill="#333" d="M80.51 43.77c0-2.52.26-4.77.78-6.75.52-1.98 1.35-3.66 2.49-5.04s2.59-2.44 4.35-3.18c1.76-.74 3.9-1.11 6.42-1.11 2.64.08 5 .68 7.08 1.8.88.48 1.75 1.1 2.61 1.86.86.76 1.62 1.71 2.28 2.85.66 1.14 1.2 2.49 1.62 4.05.42 1.56.63 3.38.63 5.46s-.19 3.9-.57 5.46c-.38 1.56-.88 2.9-1.5 4.02-.62 1.12-1.32 2.05-2.1 2.79-.78.74-1.59 1.35-2.43 1.83-1.92 1.08-4.12 1.64-6.6 1.68-1.24-.08-2.44-.34-3.6-.78-1-.4-2.02-1.04-3.06-1.92-1.04-.88-1.9-2.16-2.58-3.84l1.32 1.74v14.28h-7.14v-25.2Zm14.04-9c-1.56 0-2.8.26-3.72.78-.92.52-1.61 1.21-2.07 2.07-.46.86-.76 1.82-.9 2.88-.14 1.06-.21 2.13-.21 3.21 0 .88.08 1.84.24 2.88.16 1.04.49 2.01.99 2.91.5.9 1.2 1.65 2.1 2.25.9.6 2.09.9 3.57.9s2.67-.3 3.57-.9c.9-.6 1.59-1.35 2.07-2.25.48-.9.8-1.87.96-2.91.16-1.04.24-2 .24-2.88s-.08-1.84-.24-2.88a9.065 9.065 0 0 0-.96-2.91c-.48-.9-1.17-1.65-2.07-2.25-.9-.6-2.09-.9-3.57-.9Zm17.82 2.58c0-2.08.44-3.71 1.32-4.89.88-1.18 1.84-2.07 2.88-2.67 1.24-.72 2.64-1.16 4.2-1.32h8.4v7.26h-5.64c-.8 0-1.45.14-1.95.42-.5.28-.89.58-1.17.9-.32.4-.54.84-.66 1.32v20.52h-7.38V37.35Zm20.34-15.66c0-.88 0-1.54.03-1.98.02-.44.14-.76.36-.96.22-.2.58-.31 1.08-.33.5-.02 1.23-.03 2.19-.03s1.69.01 2.19.03c.5.02.86.13 1.08.33.22.2.34.52.36.96.02.44.03 1.1.03 1.98s-.01 1.54-.03 1.98c-.02.44-.14.76-.36.96-.22.2-.58.31-1.08.33-.5.02-1.23.03-2.19.03s-1.69 0-2.19-.03c-.5-.02-.86-.13-1.08-.33-.22-.2-.34-.52-.36-.96-.02-.44-.03-1.1-.03-1.98Zm7.32 6.78v30.42h-7.32V28.47h7.32Zm18.06 30.42h-4.92l-9.9-30.42h7.38l7.44 22.74 7.44-22.74h7.38l-9.9 30.42h-4.92Zm46.14 0h-7.14v-4.2l1.32-1.74c-.68 1.68-1.54 2.96-2.58 3.84-1.04.88-2.06 1.52-3.06 1.92-1.16.44-2.36.7-3.6.78-2.48-.04-4.68-.6-6.6-1.68a12.69 12.69 0 0 1-2.43-1.83c-.78-.74-1.48-1.67-2.1-2.79-.62-1.12-1.12-2.46-1.5-4.02-.38-1.56-.57-3.38-.57-5.46s.2-3.9.6-5.46c.4-1.56.93-2.91 1.59-4.05.66-1.14 1.42-2.09 2.28-2.85.86-.76 1.73-1.38 2.61-1.86 2.08-1.12 4.46-1.72 7.14-1.8 2.52 0 4.66.37 6.42 1.11 1.76.74 3.21 1.8 4.35 3.18s1.97 3.06 2.49 5.04c.52 1.98.78 4.23.78 6.75v15.12Zm-14.04-24.12c-1.48 0-2.67.3-3.57.9-.9.6-1.59 1.35-2.07 2.25-.48.9-.8 1.87-.96 2.91-.16 1.04-.24 2-.24 2.88s.08 1.84.24 2.88c.16 1.04.48 2.01.96 2.91.48.9 1.17 1.65 2.07 2.25.9.6 2.09.9 3.57.9s2.67-.3 3.57-.9c.9-.6 1.6-1.35 2.1-2.25.5-.9.83-1.87.99-2.91.16-1.04.24-2 .24-2.88 0-1.08-.07-2.15-.21-3.21-.14-1.06-.44-2.02-.9-2.88-.46-.86-1.15-1.55-2.07-2.07-.92-.52-2.16-.78-3.72-.78Zm25.26.84v13.38c.12.48.34.92.66 1.32.28.32.67.62 1.17.9.5.28 1.15.42 1.95.42h4.56v7.26h-7.32c-1.56-.16-2.96-.6-4.2-1.32-1.04-.6-1.99-1.49-2.85-2.67-.86-1.18-1.29-2.81-1.29-4.89v-29.7h7.32v8.16h6.9v7.14h-6.9Zm39.9 4.2c.08.6.15 1.22.21 1.86s.09 1.32.09 2.04v1.08h-21c.08.68.18 1.37.3 2.07.12.7.32 1.39.6 2.07.44 1.04 1.12 1.96 2.04 2.76.92.8 2.2 1.2 3.84 1.2s2.92-.4 3.84-1.2c.92-.8 1.6-1.72 2.04-2.76h7.8c-.32 1.4-.77 2.62-1.35 3.66s-1.22 1.94-1.92 2.7-1.45 1.39-2.25 1.89-1.58.91-2.34 1.23c-1.84.72-3.78 1.08-5.82 1.08-2.68-.04-5.06-.6-7.14-1.68-.88-.48-1.75-1.09-2.61-1.83-.86-.74-1.62-1.67-2.28-2.79-.66-1.12-1.19-2.46-1.59-4.02-.4-1.56-.6-3.38-.6-5.46s.2-3.9.6-5.46c.4-1.56.93-2.91 1.59-4.05.66-1.14 1.42-2.09 2.28-2.85.86-.76 1.73-1.38 2.61-1.86 2.08-1.12 4.46-1.72 7.14-1.8 2.2.08 4.26.54 6.18 1.38.8.36 1.61.83 2.43 1.41.82.58 1.58 1.3 2.28 2.16.7.86 1.32 1.88 1.86 3.06.54 1.18.93 2.55 1.17 4.11Zm-7.56 0c-.2-.64-.45-1.28-.75-1.92-.3-.64-.71-1.22-1.23-1.74s-1.14-.93-1.86-1.23c-.72-.3-1.56-.45-2.52-.45s-1.8.15-2.52.45c-.72.3-1.34.71-1.86 1.23s-.94 1.1-1.26 1.74a9.38 9.38 0 0 0-.72 1.92h12.72Zm37.62-9.18v6.78h-6.3v21.48h-7.14V27.27c0-2.08.43-3.71 1.29-4.89s1.81-2.07 2.85-2.67c1.24-.72 2.64-1.16 4.2-1.32h8.4v6.78h-5.64c-.96 0-1.7.16-2.22.48-.52.32-.92.68-1.2 1.08-.32.44-.5.96-.54 1.56v2.34h6.3Zm6.9-8.94c0-.88 0-1.54.03-1.98.02-.44.14-.76.36-.96s.58-.31 1.08-.33c.5-.02 1.23-.03 2.19-.03s1.69.01 2.19.03c.5.02.86.13 1.08.33s.34.52.36.96c.02.44.03 1.1.03 1.98s-.01 1.54-.03 1.98c-.02.44-.14.76-.36.96s-.58.31-1.08.33c-.5.02-1.23.03-2.19.03s-1.69 0-2.19-.03c-.5-.02-.86-.13-1.08-.33s-.34-.52-.36-.96c-.02-.44-.03-1.1-.03-1.98Zm7.32 6.78v30.42h-7.32V28.47h7.32Zm17.34-.78c.12 0 .55.02 1.29.06s1.61.21 2.61.51c1 .3 2.06.77 3.18 1.41 1.12.64 2.16 1.56 3.12 2.76s1.75 2.71 2.37 4.53c.62 1.82.93 4.07.93 6.75v15.18h-7.32V43.71c0-.88-.08-1.78-.24-2.7-.16-.92-.46-1.76-.9-2.52s-1.06-1.39-1.86-1.89-1.86-.75-3.18-.75-2.38.25-3.18.75c-.8.5-1.42 1.13-1.86 1.89-.44.76-.74 1.6-.9 2.52-.16.92-.24 1.82-.24 2.7v15.18h-7.32V43.71c0-2.68.31-4.93.93-6.75.62-1.82 1.41-3.33 2.37-4.53s2-2.12 3.12-2.76 2.18-1.11 3.18-1.41c1-.3 1.86-.47 2.58-.51.72-.04 1.16-.06 1.32-.06Zm45.42 31.2h-7.14v-4.2l1.32-1.74c-.68 1.68-1.54 2.96-2.58 3.84s-2.06 1.52-3.06 1.92c-1.16.44-2.36.7-3.6.78-2.48-.04-4.68-.6-6.6-1.68a12.69 12.69 0 0 1-2.43-1.83c-.78-.74-1.48-1.67-2.1-2.79-.62-1.12-1.12-2.46-1.5-4.02-.38-1.56-.57-3.38-.57-5.46s.2-3.9.6-5.46c.4-1.56.93-2.91 1.59-4.05.66-1.14 1.42-2.09 2.28-2.85.86-.76 1.73-1.38 2.61-1.86 2.08-1.12 4.46-1.72 7.14-1.8 2.52 0 4.66.37 6.42 1.11 1.76.74 3.21 1.8 4.35 3.18 1.14 1.38 1.97 3.06 2.49 5.04.52 1.98.78 4.23.78 6.75v15.12Zm-14.04-24.12c-1.48 0-2.67.3-3.57.9-.9.6-1.59 1.35-2.07 2.25-.48.9-.8 1.87-.96 2.91-.16 1.04-.24 2-.24 2.88s.08 1.84.24 2.88c.16 1.04.48 2.01.96 2.91.48.9 1.17 1.65 2.07 2.25.9.6 2.09.9 3.57.9s2.67-.3 3.57-.9c.9-.6 1.6-1.35 2.1-2.25.5-.9.83-1.87.99-2.91.16-1.04.24-2 .24-2.88 0-1.08-.07-2.15-.21-3.21s-.44-2.02-.9-2.88c-.46-.86-1.15-1.55-2.07-2.07-.92-.52-2.16-.78-3.72-.78Zm31.2-7.08c.12 0 .55.02 1.29.06s1.61.21 2.61.51c1 .3 2.06.77 3.18 1.41 1.12.64 2.16 1.56 3.12 2.76s1.75 2.71 2.37 4.53c.62 1.82.93 4.07.93 6.75v15.18h-7.32V43.71c0-.88-.08-1.78-.24-2.7-.16-.92-.46-1.76-.9-2.52s-1.06-1.39-1.86-1.89-1.86-.75-3.18-.75-2.38.25-3.18.75c-.8.5-1.42 1.13-1.86 1.89-.44.76-.74 1.6-.9 2.52-.16.92-.24 1.82-.24 2.7v15.18h-7.32V43.71c0-2.68.31-4.93.93-6.75.62-1.82 1.41-3.33 2.37-4.53s2-2.12 3.12-2.76 2.18-1.11 3.18-1.41c1-.3 1.86-.47 2.58-.51.72-.04 1.16-.06 1.32-.06Zm45.12 12.18h-7.44c-.2-.64-.45-1.27-.75-1.89-.3-.62-.7-1.17-1.2-1.65s-1.11-.86-1.83-1.14c-.72-.28-1.58-.42-2.58-.42-1.48 0-2.67.3-3.57.9-.9.6-1.59 1.35-2.07 2.25-.48.9-.8 1.87-.96 2.91-.16 1.04-.24 2-.24 2.88s.08 1.84.24 2.88c.16 1.04.48 2.01.96 2.91.48.9 1.17 1.65 2.07 2.25.9.6 2.09.9 3.57.9 1.96 0 3.43-.52 4.41-1.56s1.65-2.24 2.01-3.6h7.38c-.24 1.6-.63 2.99-1.17 4.17-.54 1.18-1.15 2.2-1.83 3.06-.68.86-1.42 1.57-2.22 2.13-.8.56-1.6 1.02-2.4 1.38-1.88.84-3.94 1.26-6.18 1.26-2.68-.04-5.06-.6-7.14-1.68-.88-.48-1.75-1.09-2.61-1.83-.86-.74-1.62-1.67-2.28-2.79-.66-1.12-1.19-2.46-1.59-4.02-.4-1.56-.6-3.38-.6-5.46s.2-3.9.6-5.46c.4-1.56.94-2.91 1.62-4.05.68-1.14 1.44-2.09 2.28-2.85.84-.76 1.72-1.38 2.64-1.86 2.08-1.12 4.46-1.72 7.14-1.8 2.2.08 4.24.54 6.12 1.38.8.36 1.6.83 2.4 1.41.8.58 1.54 1.31 2.22 2.19.68.88 1.29 1.91 1.83 3.09s.93 2.55 1.17 4.11Zm31.86-.06c.08.6.15 1.22.21 1.86.06.64.09 1.32.09 2.04v1.08h-21c.08.68.18 1.37.3 2.07.12.7.32 1.39.6 2.07.44 1.04 1.12 1.96 2.04 2.76.92.8 2.2 1.2 3.84 1.2s2.92-.4 3.84-1.2c.92-.8 1.6-1.72 2.04-2.76h7.8c-.32 1.4-.77 2.62-1.35 3.66s-1.22 1.94-1.92 2.7c-.7.76-1.45 1.39-2.25 1.89s-1.58.91-2.34 1.23c-1.84.72-3.78 1.08-5.82 1.08-2.68-.04-5.06-.6-7.14-1.68-.88-.48-1.75-1.09-2.61-1.83-.86-.74-1.62-1.67-2.28-2.79-.66-1.12-1.19-2.46-1.59-4.02-.4-1.56-.6-3.38-.6-5.46s.2-3.9.6-5.46c.4-1.56.93-2.91 1.59-4.05.66-1.14 1.42-2.09 2.28-2.85.86-.76 1.73-1.38 2.61-1.86 2.08-1.12 4.46-1.72 7.14-1.8 2.2.08 4.26.54 6.18 1.38.8.36 1.61.83 2.43 1.41.82.58 1.58 1.3 2.28 2.16.7.86 1.32 1.88 1.86 3.06.54 1.18.93 2.55 1.17 4.11Zm-7.56 0c-.2-.64-.45-1.28-.75-1.92-.3-.64-.71-1.22-1.23-1.74s-1.14-.93-1.86-1.23-1.56-.45-2.52-.45-1.8.15-2.52.45-1.34.71-1.86 1.23-.94 1.1-1.26 1.74a9.38 9.38 0 0 0-.72 1.92h12.72Zm-237.84 29.7h1.47v14.68h-1.47V69.51Zm15.87 0v14.68h-1.47l-8.13-12.35v12.35h-1.47V69.51h1.47l8.13 12.32V69.51H227Zm2.29 0h9.64v1.22h-4.07v13.46h-1.47V70.73h-4.09v-1.22Zm19.64 1.2h-6.19v5.48h5.56v1.22h-5.56v5.56h6.19v1.22h-7.66v-14.7h7.66v1.22Zm7.3-1.2c3.4 0 5 1.85 5 4.26 0 2.02-1.13 3.72-3.61 4.18l3.78 6.24h-1.76l-3.63-6.13h-2.71v6.13h-1.47V69.51h4.41Zm0 1.24h-2.94v6.11h2.96c2.39 0 3.46-1.3 3.46-3.09s-1.01-3.02-3.49-3.02Zm18.99-1.24v14.68h-1.47l-8.12-12.35v12.35h-1.47V69.51h1.47l8.12 12.32V69.51h1.47Zm11.84 11.19h-6.68l-1.28 3.49h-1.55l5.35-14.49h1.66l5.33 14.49h-1.55l-1.28-3.49Zm-3.34-9.15-2.9 7.94h5.79l-2.9-7.94Zm7.48-2.04h9.64v1.22h-4.07v13.46h-1.47V70.73h-4.09v-1.22Zm11.97 0h1.47v14.68h-1.47V69.51Zm11.4 14.82c-4.12 0-7.26-3.09-7.26-7.5s3.15-7.5 7.26-7.5 7.26 3.11 7.26 7.5-3.13 7.5-7.26 7.5Zm0-1.28c3.25 0 5.75-2.37 5.75-6.21s-2.5-6.19-5.75-6.19-5.75 2.35-5.75 6.19 2.5 6.21 5.75 6.21Zm21.02-13.54v14.68h-1.47l-8.13-12.35v12.35h-1.47V69.51h1.47l8.13 12.32V69.51h1.47Zm11.85 11.19h-6.68l-1.28 3.49h-1.55l5.35-14.49h1.66l5.33 14.49h-1.55l-1.28-3.49Zm-3.34-9.15-2.9 7.94h5.79l-2.9-7.94Zm9.99-2.04v13.48h5.27v1.2h-6.74V69.51h1.47Zm17.58 14.82c-2.94 0-4.87-1.68-4.96-3.93h1.55c.13 1.22 1.03 2.69 3.4 2.69 2.04 0 3.23-1.2 3.23-2.71 0-4.32-8.06-1.6-8.06-7.12 0-2.27 1.87-3.93 4.7-3.93s4.47 1.55 4.72 3.57h-1.6c-.17-1.03-1.16-2.29-3.19-2.31-1.72-.02-3.15.92-3.15 2.62 0 4.24 8.06 1.64 8.06 7.1 0 1.99-1.62 4.01-4.72 4.01Zm15.22-13.62h-6.19v5.48h5.56v1.22h-5.56v5.56h6.19v1.22h-7.66v-14.7h7.66v1.22Zm7.31-1.2c3.4 0 5 1.85 5 4.26 0 2.02-1.13 3.72-3.61 4.18l3.78 6.24h-1.76l-3.63-6.13h-2.71v6.13h-1.47V69.51h4.41Zm0 1.24h-2.94v6.11h2.96c2.39 0 3.46-1.3 3.46-3.09s-1.01-3.02-3.49-3.02Zm18-1.24h1.55l-5.56 14.68h-1.68l-5.56-14.68h1.6l4.81 13.08 4.85-13.08Zm3.76 0h1.47v14.68h-1.47V69.51Zm11.32-.17c3.28 0 5.71 1.64 6.76 4.45h-1.72c-.82-1.95-2.54-3.17-5.04-3.17-3.21 0-5.67 2.37-5.67 6.21s2.46 6.19 5.67 6.19c2.5 0 4.22-1.22 5.04-3.13h1.72c-1.05 2.77-3.49 4.41-6.76 4.41-4.07 0-7.18-3.07-7.18-7.47s3.11-7.5 7.18-7.5Zm17.34 1.37h-6.19v5.48h5.56v1.22h-5.56v5.56h6.19v1.22h-7.66v-14.7h7.66v1.22Zm7.35 13.62c-2.94 0-4.87-1.68-4.96-3.93h1.55c.13 1.22 1.03 2.69 3.4 2.69 2.04 0 3.23-1.2 3.23-2.71 0-4.32-8.06-1.6-8.06-7.12 0-2.27 1.87-3.93 4.7-3.93s4.47 1.55 4.72 3.57h-1.6c-.17-1.03-1.16-2.29-3.19-2.31-1.72-.02-3.15.92-3.15 2.62 0 4.24 8.06 1.64 8.06 7.1 0 1.99-1.62 4.01-4.72 4.01Z"/>
    <path fill="#e73849" d="m30.23 0 12.22 7.45-23.03 11.78c-3.56 2.33-3.83 4.8-1.42 7.9l13.04-6.78 12.22 7.3-14.76 7.01c19.19 15.99 19.99 32.02 5.29 48.07 5.47-21.15-4.94-35.78-26.76-48.52-9.58-4.75-9.18-16.36.02-21.61L30.23 0Z"/>
    <path fill="#333" d="M4.96 46.96 20.91 57.1c7.3 4.7 6.71 17.66-1.12 13.34L4.96 61.2V46.96Zm0 28.47 9.54 5.59-9.54 7.97V75.43z"/>
</svg>
